<svg height="512" viewBox="0 0 1600 1600" width="512" xmlns="http://www.w3.org/2000/svg">
  <g fill="#34B7BC">
    <path d="m1050.8 1143.6h-577.3c-13.3 0-24-10.7-24-24s10.7-24 24-24h553.3v-691.3c0-19.9-16.1-36-36-36h-874.8c-19.9 0-36 16.1-36 36v655.3c0 19.9 16.1 36 36 36h85.3c13.3 0 24 10.7 24 24s-10.7 24-24 24h-85.3c-46.3 0-84-37.7-84-84v-655.3c0-46.3 37.7-84 84-84h874.8c46.3 0 84 37.7 84 84v715.3c0 13.3-10.8 24-24 24z"/>
    <path d="m337.4 1279.7c-88.3 0-160.1-71.8-160.1-160.1s71.8-160.1 160.1-160.1 160.1 71.8 160.1 160.1-71.8 160.1-160.1 160.1zm0-272.2c-61.8 0-112.1 50.3-112.1 112.1s50.3 112.1 112.1 112.1 112.1-50.3 112.1-112.1-50.3-112.1-112.1-112.1z"/>
    <path d="m337.4 1189.4c-38.5 0-69.8-31.3-69.8-69.8s31.3-69.8 69.8-69.8 69.8 31.3 69.8 69.8-31.3 69.8-69.8 69.8zm0-91.6c-12 0-21.8 9.8-21.8 21.8s9.8 21.8 21.8 21.8 21.8-9.8 21.8-21.8-9.8-21.8-21.8-21.8z"/>
    <path d="m233.5 1055.6h-177.5c-13.3 0-24-10.7-24-24s10.7-24 24-24h177.5c13.3 0 24 10.7 24 24s-10.7 24-24 24z"/>
    <path d="m1050.8 1055.6h-609.6c-13.3 0-24-10.7-24-24s10.7-24 24-24h609.6c13.3 0 24 10.7 24 24s-10.8 24-24 24z"/>
    <g>
      <path d="m1484 1143.6h-46c-13.3 0-24-10.7-24-24s10.7-24 24-24h46c19.9 0 36-16.1 36-36v-188.7c0-6.4-1.7-12.6-4.9-18.2l-178.4-305.7c-6.4-11-18.3-17.9-31.1-17.9h-230.9v566.4h91c13.3 0 24 10.7 24 24s-10.7 24-24 24h-115c-13.3 0-24-10.7-24-24v-614.3c0-13.3 10.7-24 24-24h254.9c29.8 0 57.6 16 72.6 41.7l178.4 305.7c7.5 12.9 11.4 27.5 11.4 42.3v188.7c0 46.3-37.7 84-84 84z"/>
      <path d="m1441.8 878.7h-300.8c-13.3 0-24-10.7-24-24v-256.7c0-13.3 10.7-24 24-24h153.3c8.6 0 16.5 4.6 20.8 12l147.4 256.7c4.3 7.4 4.2 16.6 0 24-4.3 7.4-12.2 12-20.7 12zm-276.8-48h235.3l-119.8-208.7h-115.5z"/>
      <path d="m1301.9 1279.7c-88.3 0-160.1-71.8-160.1-160.1s71.8-160.1 160.1-160.1 160.1 71.8 160.1 160.1-71.8 160.1-160.1 160.1zm0-272.2c-61.8 0-112.1 50.3-112.1 112.1s50.3 112.1 112.1 112.1 112.1-50.3 112.1-112.1-50.3-112.1-112.1-112.1z"/>
      <path d="m1301.9 1189.4c-38.5 0-69.8-31.3-69.8-69.8s31.3-69.8 69.8-69.8 69.8 31.3 69.8 69.8-31.3 69.8-69.8 69.8zm0-91.6c-12 0-21.8 9.8-21.8 21.8s9.8 21.8 21.8 21.8 21.8-9.8 21.8-21.8-9.8-21.8-21.8-21.8z"/>
    </g>
  </g>
</svg>
