<svg height="512" viewBox="0 0 420 420" width="512" xmlns="http://www.w3.org/2000/svg">
  <g fill="#34B7BC">
    <path clip-rule="evenodd" d="m388.8 395.1h-357.1c-3.2 0-5.8-2.6-5.8-5.8v-357.1c0-3.2 2.6-5.8 5.8-5.8h357.1c3.2 0 5.8 2.6 5.8 5.8v357.1c0 3.2-2.6 5.8-5.8 5.8zm-351.3-11.6h345.6v-345.6h-345.6z" fill-rule="evenodd"/>
    <path clip-rule="evenodd" d="m263.9 148.8c-1.3 0-2.5-.4-3.6-1.2l-50-39.6-50.1 39.6c-1.7 1.4-4.1 1.6-6.1.7-2-1-3.2-3-3.2-5.2v-110.9c0-3.2 2.6-5.8 5.8-5.8s5.8 2.6 5.8 5.8v98.9l44.4-35c2.1-1.7 5-1.7 7.1 0l44.4 35v-98.9c0-3.2 2.6-5.8 5.8-5.8s5.8 2.6 5.8 5.8v110.8c0 2.2-1.3 4.2-3.2 5.2-1.1.4-2 .6-2.9.6z" fill-rule="evenodd"/>
    <path clip-rule="evenodd" d="m351.8 363.2h-120.6c-3.2 0-5.8-2.6-5.8-5.8s2.6-5.8 5.8-5.8h120.5c3.2 0 5.8 2.6 5.8 5.8s-2.6 5.8-5.7 5.8z" fill-rule="evenodd"/>
    <path clip-rule="evenodd" d="m266.8 340.7h-22.7c-3.2 0-5.8-2.6-5.8-5.8v-82.4c0-3.2 2.6-5.8 5.8-5.8s5.8 2.6 5.8 5.8v76.6h11.2v-76.6c0-3.2 2.6-5.8 5.8-5.8s5.8 2.6 5.8 5.8v82.4c-.1 3.2-2.7 5.8-5.9 5.8z" fill-rule="evenodd"/>
    <path clip-rule="evenodd" d="m282.3 258.3h-53.7c-2.1 0-4.1-1.2-5.1-3.1s-.8-4.2.4-6l26.9-38.6c1.1-1.5 2.8-2.5 4.7-2.5s3.7.9 4.7 2.5l26.9 38.6c1.2 1.8 1.4 4.1.4 6s-3 3.1-5.2 3.1zm-42.7-11.5h31.7l-15.8-22.8z" fill-rule="evenodd"/>
    <path clip-rule="evenodd" d="m338.9 340.7h-22.7c-3.2 0-5.8-2.6-5.8-5.8v-82.4c0-3.2 2.6-5.8 5.8-5.8s5.8 2.6 5.8 5.8v76.6h11.2v-76.6c0-3.2 2.6-5.8 5.8-5.8s5.8 2.6 5.8 5.8v82.4c-.1 3.2-2.7 5.8-5.9 5.8z" fill-rule="evenodd"/>
    <path clip-rule="evenodd" d="m354.4 258.3h-53.7c-2.1 0-4.1-1.2-5.1-3.1s-.8-4.2.4-6l26.9-38.6c1.1-1.5 2.8-2.5 4.7-2.5s3.7.9 4.7 2.5l26.9 38.6c1.2 1.8 1.4 4.1.4 6-1.1 1.9-3.1 3.1-5.2 3.1zm-42.7-11.5h31.7l-15.9-22.8z" fill-rule="evenodd"/>
  </g>
</svg>
