<?xml version="1.0" encoding="utf-8"?>
<!-- Generator: Adobe Illustrator 19.2.1, SVG Export Plug-In . SVG Version: 6.00 Build 0)  -->
<svg version="1.1" id="Слой_1" xmlns="http://www.w3.org/2000/svg" xmlns:xlink="http://www.w3.org/1999/xlink" x="0px" y="0px"
	 viewBox="0 0 30 30" style="enable-background:new 0 0 30 30;" xml:space="preserve">
<style type="text/css">
	.st0{fill:#4DAFB2;}
</style>
<g>
	<path class="st0" d="M24.2,15.8h-19c-0.4,0-0.8-0.3-0.8-0.8s0.3-0.8,0.8-0.8h19c0.4,0,0.8,0.3,0.8,0.8S24.6,15.8,24.2,15.8z"/>
	<path class="st0" d="M17.2,23.3c-0.2,0-0.4-0.1-0.5-0.2c-0.3-0.3-0.3-0.8,0-1.1l7.1-7.1l-7.1-7.1c-0.3-0.3-0.3-0.8,0-1.1
		s0.8-0.3,1.1,0l7.6,7.6c0.3,0.3,0.3,0.8,0,1.1l-7.6,7.6C17.5,23.3,17.4,23.3,17.2,23.3z"/>
</g>
</svg>
