<?xml version="1.0" encoding="utf-8"?>
<!-- Generator: Adobe Illustrator 19.2.1, SVG Export Plug-In . SVG Version: 6.00 Build 0)  -->
<svg version="1.1" id="Слой_1" xmlns="http://www.w3.org/2000/svg" xmlns:xlink="http://www.w3.org/1999/xlink" x="0px" y="0px"
	 viewBox="0 0 30 30" style="enable-background:new 0 0 30 30;" xml:space="preserve">
<style type="text/css">
	.st0{fill:#4DAFB2;}
</style>
<g>
	<path class="st0" d="M15.8,5.8v19c0,0.4-0.3,0.8-0.8,0.8s-0.8-0.3-0.8-0.8v-19C14.3,5.4,14.6,5,15,5S15.8,5.4,15.8,5.8z"/>
	<path class="st0" d="M23.3,12.8c0,0.2-0.1,0.4-0.2,0.5c-0.3,0.3-0.8,0.3-1.1,0L15,6.3l-7.1,7.1c-0.3,0.3-0.8,0.3-1.1,0
		s-0.3-0.8,0-1.1l7.6-7.6c0.3-0.3,0.8-0.3,1.1,0l7.6,7.6C23.3,12.5,23.3,12.6,23.3,12.8z"/>
</g>
</svg>
