<?xml version="1.0" encoding="utf-8"?>
<!-- Generator: Adobe Illustrator 19.2.1, SVG Export Plug-In . SVG Version: 6.00 Build 0)  -->
<svg version="1.1" id="Слой_1" xmlns="http://www.w3.org/2000/svg" xmlns:xlink="http://www.w3.org/1999/xlink" x="0px" y="0px"
	 viewBox="0 0 30 30" style="enable-background:new 0 0 30 30;" xml:space="preserve">
<style type="text/css">
	.st0{fill:#4DAFB2;}
</style>
<g>
	<path class="st0" d="M14.2,24.2v-19c0-0.4,0.3-0.8,0.8-0.8s0.8,0.3,0.8,0.8v19c0,0.4-0.3,0.8-0.8,0.8S14.2,24.6,14.2,24.2z"/>
	<path class="st0" d="M6.7,17.2c0-0.2,0.1-0.4,0.2-0.5c0.3-0.3,0.8-0.3,1.1,0l7.1,7.1l7.1-7.1c0.3-0.3,0.8-0.3,1.1,0s0.3,0.8,0,1.1
		l-7.6,7.6c-0.3,0.3-0.8,0.3-1.1,0l-7.6-7.6C6.7,17.5,6.7,17.4,6.7,17.2z"/>
</g>
</svg>
