<?xml version="1.0" encoding="utf-8"?>
<!-- Generator: Adobe Illustrator 19.2.1, SVG Export Plug-In . SVG Version: 6.00 Build 0)  -->
<svg version="1.1" id="Слой_1" xmlns="http://www.w3.org/2000/svg" xmlns:xlink="http://www.w3.org/1999/xlink" x="0px" y="0px"
	 viewBox="0 0 512 512" style="enable-background:new 0 0 512 512;" xml:space="preserve">
<path d="M32,96c0-8.84,7.16-16,16-16h416c8.8,0,16,7.16,16,16s-7.2,16-16,16H48C39.16,112,32,104.84,32,96z M32,256
	c0-8.8,7.16-16,16-16h416c8.8,0,16,7.2,16,16c0,8.8-7.2,16-16,16H48C39.16,272,32,264.8,32,256z M464,432H48c-8.84,0-16-7.2-16-16
	s7.16-16,16-16h416c8.8,0,16,7.2,16,16S472.8,432,464,432z"/>
</svg>
