<?xml version="1.0" encoding="utf-8"?>
<!-- Generator: Adobe Illustrator 19.2.1, SVG Export Plug-In . SVG Version: 6.00 Build 0)  -->
<svg version="1.1" id="Слой_1" xmlns="http://www.w3.org/2000/svg" xmlns:xlink="http://www.w3.org/1999/xlink" x="0px" y="0px"
	 viewBox="0 0 30 30" style="enable-background:new 0 0 30 30;" xml:space="preserve">
<style type="text/css">
	.st0{fill:#0D0F0F;}
</style>
<path class="st0" d="M25.5,16.5h-21C3.7,16.5,3,15.8,3,15c0-0.8,0.7-1.5,1.5-1.5h21c0.8,0,1.5,0.7,1.5,1.5
	C27,15.8,26.3,16.5,25.5,16.5z M25.5,9h-21C3.7,9,3,8.3,3,7.5S3.7,6,4.5,6h21C26.3,6,27,6.7,27,7.5S26.3,9,25.5,9z M4.5,21h21
	c0.8,0,1.5,0.7,1.5,1.5c0,0.8-0.7,1.5-1.5,1.5h-21C3.7,24,3,23.3,3,22.5C3,21.7,3.7,21,4.5,21z"/>
</svg>
