<?xml version="1.0" encoding="utf-8"?>
<!-- Generator: Adobe Illustrator 19.2.1, SVG Export Plug-In . SVG Version: 6.00 Build 0)  -->
<svg version="1.1" id="Слой_1" xmlns="http://www.w3.org/2000/svg" xmlns:xlink="http://www.w3.org/1999/xlink" x="0px" y="0px"
	 viewBox="0 0 512 512" style="enable-background:new 0 0 512 512;" xml:space="preserve">
<style type="text/css">
	.st0{fill:#0D0F0F;}
</style>
<path class="st0" d="M480,272c0,26.5-21.5,48-48,48H80c-26.5,0-48-21.5-48-48v-32c0-26.5,21.5-48,48-48h352c26.5,0,48,21.5,48,48
	V272z M80,240v32h352v-32H80z M288,432c0,26.5-21.5,48-48,48H80c-26.5,0-48-21.5-48-48v-32c0-26.5,21.5-48,48-48h160
	c26.5,0,48,21.5,48,48V432z M80,400v32h160v-32H80z M80,160c-26.5,0-48-21.5-48-48V80c0-26.5,21.5-48,48-48h288
	c26.5,0,48,21.5,48,48v32c0,26.5-21.5,48-48,48H80z M368,112V80H80v32H368z"/>
</svg>
