<?xml version="1.0" encoding="utf-8"?>
<!-- Generator: Adobe Illustrator 19.2.1, SVG Export Plug-In . SVG Version: 6.00 Build 0)  -->
<svg version="1.1" id="Слой_1" xmlns="http://www.w3.org/2000/svg" xmlns:xlink="http://www.w3.org/1999/xlink" x="0px" y="0px"
	 viewBox="0 0 512 512" style="enable-background:new 0 0 512 512;" xml:space="preserve">
<style type="text/css">
	.st0{fill:#0D0F0F;}
</style>
<path class="st0" d="M411.3,411.32c-6.25,6.25-16.37,6.25-22.63,0L256,278.62l-132.7,132.7c-6.25,6.25-16.37,6.25-22.63,0
	c-6.25-6.25-6.25-16.37,0-22.63L233.4,256.02l-132.71-132.7c-6.25-6.25-6.25-16.37,0-22.63c6.25-6.25,16.37-6.25,22.63,0L256,233.41
	l132.7-132.7c6.25-6.25,16.37-6.25,22.63,0c6.25,6.25,6.25,16.37,0,22.63L278.6,256.02l132.7,132.7
	C417.6,394.92,417.6,405.12,411.3,411.32z"/>
</svg>
