<?xml version="1.0" encoding="utf-8"?>
<!-- Generator: Adobe Illustrator 19.2.1, SVG Export Plug-In . SVG Version: 6.00 Build 0)  -->
<svg version="1.1" id="Слой_1" xmlns="http://www.w3.org/2000/svg" xmlns:xlink="http://www.w3.org/1999/xlink" x="0px" y="0px"
	 viewBox="0 0 640 640" style="enable-background:new 0 0 640 640;" xml:space="preserve">
<style type="text/css">
	.st0{fill:#0D0F0F;}
</style>
<path class="st0" d="M448.01,320c0,70.7-57.3,128-128,128s-128-57.3-128-128s57.3-128,128-128S448.01,249.3,448.01,320z M320.01,224
	c-53.9,0-96,42.1-96,96c0,53,42.1,96,96,96c53,0,96-43,96-96C416.01,266.1,373.01,224,320.01,224z M512.61,176.6
	c46.8,43.4,78.1,94.5,92.9,131.1c3.3,7.9,3.3,16.7,0,24.6c-14.8,35.7-46.1,86.8-92.9,131.1c-47.1,43.8-111.8,80.6-192.6,80.6
	s-145.5-36.8-192.58-80.6c-46.8-44.3-78.08-95.4-92.96-131.1c-3.28-7.9-3.28-16.7,0-24.6c14.88-36.6,46.16-87.7,92.96-131.1
	C174.51,132.84,239.21,96,320.01,96S465.51,132.84,512.61,176.6L512.61,176.6z M64.01,320c13.33,32,42.13,80,85.2,120
	c43.1,40,100.4,72,170.8,72s127.7-32,170.8-72s71.9-88,85.2-120c-13.3-32.9-42.1-80.9-85.2-120c-43.1-40.01-100.4-72-170.8-72
	s-127.7,31.99-170.8,72C106.14,239.1,77.34,287.1,64.01,320L64.01,320z"/>
</svg>
