<?xml version="1.0" encoding="utf-8"?>
<!-- Generator: Adobe Illustrator 19.2.1, SVG Export Plug-In . SVG Version: 6.00 Build 0)  -->
<svg version="1.1" id="Слой_1" xmlns="http://www.w3.org/2000/svg" xmlns:xlink="http://www.w3.org/1999/xlink" x="0px" y="0px"
	 viewBox="0 0 30 30" style="enable-background:new 0 0 30 30;" xml:space="preserve">
<path d="M12.4,9.1c0.2-1.2,0.8-2.3,1.5-3.2c0.8-0.9,1.7-1.7,2.8-2.1c0.7-0.3,0.5-1.3-0.2-1.4c-6.5-0.8-12.6,3.5-14,10
	C1.1,19.2,5.5,26,12.3,27.5c6.9,1.5,13.7-2.9,15.1-9.8c0.2-1,0.3-2,0.3-3.1c0-0.8-1-1-1.4-0.3c-0.8,1.4-2,2.5-3.5,3.2
	c-1.5,0.7-3.1,0.9-4.7,0.5c-1.9-0.4-3.6-1.6-4.7-3.3C12.4,13.1,12,11,12.4,9.1z M4,12.7c0.5-2.3,1.7-4.5,3.5-6.1s4-2.6,6.4-2.8
	c-1.5,1.3-2.5,3-3,5c-0.2,1.2-0.3,2.4,0,3.5s0.7,2.3,1.3,3.3c0.6,1,1.5,1.8,2.5,2.5c1,0.7,2.1,1.1,3.2,1.4c1.5,0.3,3,0.3,4.4-0.2
	c1.4-0.4,2.7-1.2,3.8-2.2c0,0.1,0,0.2-0.1,0.3c-1.3,6.1-7.3,10-13.3,8.7C6.6,24.7,2.7,18.8,4,12.7L4,12.7z"/>
</svg>
