<svg xmlns="http://www.w3.org/2000/svg" viewBox="0 0 16 16">
<path d="M8,16c-4.4,0-8-3.6-8-8c0-4.4,3.6-8,8-8c4.4,0,8,3.6,8,8C16,12.4,12.4,16,8,16z M8,14.4c1.7,0,3.3-0.7,4.5-1.9s1.9-2.8,1.9-4.5c0-1.7-0.7-3.3-1.9-4.5C11.3,2.3,9.7,1.6,8,1.6c-1.7,0-3.3,0.7-4.5,1.9C2.3,4.7,1.6,6.3,1.6,8c0,1.7,0.7,3.3,1.9,4.5C4.7,13.7,6.3,14.4,8,14.4z M7.2,10.4h1.6V12H7.2V10.4z M8.8,9.1v0.5H7.2V8.4c0-0.2,0.1-0.4,0.2-0.6C7.6,7.7,7.8,7.6,8,7.6c0.2,0,0.4-0.1,0.6-0.2C8.8,7.3,9,7.1,9.1,6.9c0.1-0.2,0.1-0.4,0.1-0.7c0-0.2-0.1-0.4-0.3-0.6C8.8,5.5,8.6,5.3,8.4,5.3c-0.2-0.1-0.4-0.1-0.7,0C7.5,5.3,7.3,5.4,7.1,5.6C7,5.7,6.9,5.9,6.8,6.2L5.3,5.9c0.1-0.5,0.3-0.9,0.7-1.3c0.3-0.4,0.8-0.6,1.2-0.8c0.5-0.2,1-0.2,1.5-0.1C9.1,3.8,9.5,4,9.9,4.3c0.4,0.3,0.6,0.8,0.8,1.2c0.1,0.5,0.2,1,0.1,1.5C10.6,7.5,10.4,8,10,8.3C9.7,8.7,9.3,8.9,8.8,9.1z"/>
</svg>
