<?xml version="1.0" encoding="utf-8"?>
<!-- Generator: Adobe Illustrator 19.2.1, SVG Export Plug-In . SVG Version: 6.00 Build 0)  -->
<svg version="1.1" id="Слой_1" xmlns="http://www.w3.org/2000/svg" xmlns:xlink="http://www.w3.org/1999/xlink" x="0px" y="0px"
	 viewBox="0 0 512 512" style="enable-background:new 0 0 512 512;" xml:space="preserve">
<style type="text/css">
	.st0{fill:#0D0F0F;}
</style>
<path class="st0" d="M285.6,128h-59.2c-36.6,0-66.4,29.8-66.4,66.4v9.6c0,8.84,7.16,16,16,16s16-7.2,16-16v-9.6
	c0-19,15.4-34.4,34.4-34.4h59.25c18.95,0,34.35,15.4,34.35,34.4c0,12.48-6.78,24-17.06,29.72L242.5,254.3
	c-11.4,6.4-18.5,18.4-18.5,31.5V304c0,8.8,7.2,16,16,16s16-7.2,16-16v-18.2c0-1.45,0.78-2.8,1.44-3.17l60.41-30.22
	C338.9,240.7,352,218.5,352,194.4C352,157.8,322.2,128,285.6,128z M240,344c-13.25,0-24,10.75-24,24s10.75,24,24,24s24-10.75,24-24
	S253.3,344,240,344z M416,32H96c-35.35,0-64,28.65-64,64v320c0,35.35,28.65,64,64,64h320c35.35,0,64-28.65,64-64V96
	C480,60.65,451.3,32,416,32z M448,416c0,17.64-14.36,32-32,32H96c-17.64,0-32-14.36-32-32V96c0-17.64,14.36-32,32-32h320
	c17.64,0,32,14.36,32,32V416z"/>
</svg>
