<svg width="50" height="50" viewBox="0 0 50 50" xmlns="http://www.w3.org/2000/svg">
<path d="M24.9974 4.16406C13.4974 4.16406 4.16406 13.4974 4.16406 24.9974C4.16406 36.4974 13.4974 45.8307 24.9974 45.8307C36.4974 45.8307 45.8307 36.4974 45.8307 24.9974C45.8307 13.4974 36.4974 4.16406 24.9974 4.16406ZM34.6641 18.3307C34.3516 21.6224 32.9974 29.6224 32.3099 33.3099C32.0182 34.8724 31.4349 35.3932 30.8932 35.4557C29.6849 35.5599 28.7682 34.6641 27.6016 33.8932C25.7682 32.6849 24.7266 31.9349 22.9557 30.7682C20.8932 29.4141 22.2266 28.6641 23.4141 27.4557C23.7266 27.1432 29.0599 22.2891 29.1641 21.8516C29.1785 21.7853 29.1766 21.7165 29.1585 21.6512C29.1403 21.5858 29.1065 21.5259 29.0599 21.4766C28.9349 21.3724 28.7682 21.4141 28.6224 21.4349C28.4349 21.4766 25.5182 23.4141 19.8307 27.2474C18.9974 27.8099 18.2474 28.1016 17.5807 28.0807C16.8307 28.0599 15.4141 27.6641 14.3516 27.3099C13.0391 26.8932 12.0182 26.6641 12.1016 25.9349C12.1432 25.5599 12.6641 25.1849 13.6432 24.7891C19.7266 22.1432 23.7682 20.3932 25.7891 19.5599C31.5807 17.1432 32.7682 16.7266 33.5599 16.7266C33.7266 16.7266 34.1224 16.7682 34.3724 16.9766C34.5807 17.1432 34.6432 17.3724 34.6641 17.5391C34.6432 17.6641 34.6849 18.0391 34.6641 18.3307Z"/>
</svg>
