<svg xmlns="http://www.w3.org/2000/svg" viewBox="0 0 40 28">
<g>
	<path d="M1,0.8C0.8,0.8,0.5,0.9,0.3,1c-0.4,0.3-0.4,0.9,0,1.3l13.8,11.8L0.5,25.7c-0.4,0.3-0.4,0.9,0,1.3c0.4,0.3,1.1,0.3,1.5,0l14.3-12.2c0.4-0.3,0.4-0.9,0-1.3L1.8,1C1.6,0.9,1.3,0.8,1,0.8z"/>
	<path d="M12.7,0.8c-0.3,0-0.5,0.1-0.7,0.3c-0.4,0.3-0.4,0.9,0,1.3l13.8,11.8L12.2,25.7c-0.4,0.3-0.4,0.9,0,1.3c0.4,0.3,1.1,0.3,1.5,0L28,14.7c0.4-0.3,0.4-0.9,0-1.3L13.5,1C13.3,0.9,13,0.8,12.7,0.8z"/>
	<path d="M24.5,0.8c-0.3,0-0.5,0.1-0.7,0.3c-0.4,0.3-0.4,0.9,0,1.3l13.8,11.8L23.9,25.7c-0.4,0.3-0.4,0.9,0,1.3c0.4,0.3,1.1,0.3,1.5,0l14.3-12.2c0.4-0.3,0.4-0.9,0-1.3L25.2,1C25,0.9,24.7,0.8,24.5,0.8z"/>
</g>
</svg>
