<?xml version="1.0" encoding="utf-8"?>
<!-- Generator: Adobe Illustrator 19.2.1, SVG Export Plug-In . SVG Version: 6.00 Build 0)  -->
<svg version="1.1" id="Слой_1" xmlns="http://www.w3.org/2000/svg" xmlns:xlink="http://www.w3.org/1999/xlink" x="0px" y="0px"
	 viewBox="0 0 512 512" style="enable-background:new 0 0 512 512;" xml:space="preserve">
<style type="text/css">
	.st0{fill:#0D0F0F;}
</style>
<path class="st0" d="M464,64c8.8,0,16,7.16,16,16s-7.2,16-16,16h-18.3l-25.5,356.6c-2.3,33.5-31.1,59.4-63.8,59.4H155.6
	c-33.59,0-61.45-25.9-63.85-59.4L66.29,96H48c-8.84,0-16-7.16-16-16s7.16-16,16-16h95.1L169,22.56C177.8,8.53,193.2,0,209.7,0h92.6
	c16.5,0,31.9,8.53,39.8,22.56L368.9,64H464z M209.7,32c-5.5,0-10.6,2.84-13.5,7.52L180.9,64h150.2l-15.3-24.48
	c-2.9-4.68-8-7.52-13.5-7.52H209.7z M413.6,96H98.37l25.3,354.3c1.2,16.7,15.13,29.7,31.93,29.7h200.8c16.8,0,30.7-13,31.9-29.7
	L413.6,96z"/>
</svg>
