<svg width="50" height="50" viewBox="0 0 50 50" xmlns="http://www.w3.org/2000/svg">
<path d="M25.0052 4.16406C36.5115 4.16406 45.8386 13.4911 45.8386 24.9974C45.8386 36.5036 36.5115 45.8307 25.0052 45.8307C21.3235 45.8367 17.7066 44.8623 14.5261 43.0078L4.18024 45.8307L6.9969 35.4807C5.14085 32.2992 4.16575 28.6807 4.1719 24.9974C4.1719 13.4911 13.499 4.16406 25.0052 4.16406ZM17.9052 15.2057L17.4886 15.2224C17.2188 15.2388 16.9552 15.3097 16.7136 15.4307C16.4876 15.5587 16.2813 15.7187 16.1011 15.9057C15.8511 16.1411 15.7094 16.3453 15.5573 16.5432C14.7867 17.5451 14.3718 18.7751 14.3782 20.0391C14.3823 21.0599 14.649 22.0536 15.0657 22.9828C15.9177 24.862 17.3198 26.8516 19.1698 28.6953C19.6157 29.1391 20.0532 29.5849 20.524 29.9995C22.8227 32.0234 25.562 33.4829 28.524 34.262L29.7073 34.4432C30.0927 34.4641 30.4782 34.4349 30.8657 34.4161C31.4724 34.3848 32.0648 34.2205 32.6011 33.9349C32.8739 33.7944 33.1401 33.6414 33.399 33.4766C33.399 33.4766 33.4886 33.4182 33.6594 33.2891C33.9407 33.0807 34.1136 32.9328 34.3469 32.6891C34.5198 32.5099 34.6698 32.2995 34.7844 32.0599C34.9469 31.7203 35.1094 31.0724 35.1761 30.5328C35.2261 30.1203 35.2115 29.8953 35.2052 29.7557C35.1969 29.5328 35.0115 29.3016 34.8094 29.2036L33.5969 28.6599C33.5969 28.6599 31.7844 27.8703 30.6761 27.3661C30.5601 27.3155 30.4358 27.2866 30.3094 27.2807C30.1669 27.2661 30.0228 27.2821 29.887 27.3278C29.7512 27.3734 29.6267 27.4476 29.5219 27.5453C29.5115 27.5411 29.3719 27.6599 27.8657 29.4849C27.7792 29.6011 27.6601 29.6889 27.5236 29.7371C27.387 29.7853 27.2392 29.7918 27.099 29.7557C26.9633 29.7193 26.8303 29.6734 26.7011 29.6182C26.4427 29.5099 26.3532 29.4682 26.1761 29.3932C24.9804 28.8714 23.8733 28.1665 22.8948 27.3036C22.6323 27.0745 22.3886 26.8245 22.1386 26.5828C21.319 25.7979 20.6047 24.9099 20.0136 23.9411L19.8907 23.7432C19.8024 23.6102 19.731 23.4668 19.6782 23.3161C19.599 23.0099 19.8052 22.7641 19.8052 22.7641C19.8052 22.7641 20.3115 22.2099 20.5469 21.9099C20.7761 21.6182 20.9698 21.3349 21.0948 21.1328C21.3407 20.737 21.4177 20.3307 21.2886 20.0161C20.7052 18.5911 20.1011 17.1724 19.4802 15.7641C19.3573 15.4849 18.9927 15.2849 18.6615 15.2453C18.549 15.2328 18.4365 15.2203 18.324 15.212C18.0442 15.1981 17.7639 15.2009 17.4844 15.2203L17.9032 15.2036L17.9052 15.2057Z"/>
</svg>
