<?xml version="1.0" encoding="utf-8"?>
<!-- Generator: Adobe Illustrator 19.2.1, SVG Export Plug-In . SVG Version: 6.00 Build 0)  -->
<svg version="1.1" id="Слой_1" xmlns="http://www.w3.org/2000/svg" xmlns:xlink="http://www.w3.org/1999/xlink" x="0px" y="0px"
	 viewBox="0 0 916.19 139.94" style="enable-background:new 0 0 916.19 139.94;" xml:space="preserve">
<g>
	<g>
		<polygon points="121.19,0 40.4,0 36.57,6.63 125.02,6.63 		"/>
		<polygon points="102.61,44.53 136.24,26.07 127.85,11.54 33.74,11.54 25.27,26.18 58.69,44.53 		"/>
		<polygon points="0,69.97 40.4,139.94 48.15,139.94 3.96,63.11 		"/>
		<polygon points="156.35,63.11 112.16,139.94 119.91,139.94 160.31,69.97 		"/>
		<polygon points="19.57,36.06 7.72,56.6 50.91,130.28 56.57,139.94 75.1,139.94 75.1,85.53 59.03,57.72 		"/>
		<polygon points="142.02,36.06 102.56,57.72 86.49,85.53 86.49,139.94 105.02,139.94 110.69,130.28 153.87,56.6 		"/>
		<polygon points="220.42,75.45 220.42,26.53 228.54,18.42 277.46,18.42 277.46,29.83 231.84,29.83 231.84,41.25 266.04,41.25 
			266.04,52.62 231.84,52.62 231.84,75.45 		"/>
		<path d="M343.48,18.42l8.11,8.11v40.81l-8.11,8.11h-40.81l-8.11-8.11V26.53l8.11-8.11H343.48z M305.98,64.04h34.21V29.83h-34.21
			V64.04z"/>
		<polygon points="368.7,44.55 368.7,26.53 376.81,18.42 425.74,18.42 425.74,29.83 380.12,29.83 380.12,41.25 417.62,41.25 
			425.74,49.32 425.74,67.34 417.62,75.45 368.7,75.45 368.7,64.04 414.32,64.04 414.32,52.62 376.81,52.62 		"/>
		<polygon points="465.67,29.83 442.84,29.83 442.84,18.42 499.87,18.42 499.87,29.83 477.04,29.83 477.04,75.45 465.67,75.45 		"/>
		<polygon points="516.98,26.53 525.09,18.42 574.01,18.42 574.01,29.83 528.39,29.83 528.39,41.25 562.6,41.25 562.6,52.62 
			528.39,52.62 528.39,64.04 574.01,64.04 574.01,75.45 525.09,75.45 516.98,67.34 		"/>
		<path d="M640.04,18.42l8.11,8.11v18.02l-8.11,8.07h-6.6l14.72,14.72l-8.11,8.11l-22.79-22.83h-14.72v22.83h-11.41V26.53l8.11-8.11
			H640.04z M602.53,41.25h34.21V29.83h-34.21V41.25z"/>
		<polygon points="665.25,44.55 665.25,26.53 673.37,18.42 722.29,18.42 722.29,29.83 676.67,29.83 676.67,41.25 714.18,41.25 
			722.29,49.32 722.29,67.34 714.18,75.45 665.25,75.45 665.25,64.04 710.88,64.04 710.88,52.62 673.37,52.62 		"/>
		<path d="M833.94,18.42l8.11,8.11v18.02l-8.11,8.07h-37.51v22.83h-11.42V26.53l8.11-8.11H833.94z M796.43,41.25h34.21V29.83h-34.21
			V41.25z"/>
		<polygon points="859.15,26.53 867.27,18.42 916.19,18.42 916.19,29.83 870.57,29.83 870.57,64.04 916.19,64.04 916.19,75.45 
			867.27,75.45 859.15,67.34 		"/>
		<g>
			<path d="M234.28,112.22h3.11v7.06c-0.91,0.72-1.97,1.28-3.19,1.67c-1.21,0.39-2.46,0.58-3.74,0.58c-1.8,0-3.43-0.39-4.88-1.18
				c-1.45-0.78-2.59-1.87-3.41-3.25c-0.83-1.38-1.24-2.94-1.24-4.68c0-1.74,0.41-3.3,1.24-4.68c0.83-1.38,1.97-2.47,3.43-3.25
				c1.46-0.78,3.1-1.18,4.92-1.18c1.48,0,2.83,0.24,4.05,0.73c1.21,0.49,2.23,1.21,3.06,2.15l-2.08,2.02
				c-1.35-1.35-2.98-2.02-4.88-2.02c-1.25,0-2.36,0.26-3.33,0.78c-0.97,0.52-1.73,1.26-2.28,2.2c-0.55,0.94-0.82,2.02-0.82,3.24
				c0,1.18,0.27,2.24,0.82,3.19c0.55,0.95,1.31,1.69,2.28,2.23c0.97,0.54,2.07,0.81,3.3,0.81c1.38,0,2.6-0.3,3.64-0.91V112.22z"/>
			<path d="M255.1,117.17h-8.85l-1.75,4.1h-3.39l7.97-17.7h3.24l7.99,17.7h-3.44L255.1,117.17z M254.01,114.59l-3.34-7.74
				l-3.31,7.74H254.01z"/>
			<polygon points="280.71,121.27 280.69,109.54 274.87,119.25 273.4,119.25 267.59,109.69 267.59,121.27 264.45,121.27 
				264.45,103.57 267.16,103.57 274.19,115.3 281.09,103.57 283.8,103.57 283.82,121.27 			"/>
			<polygon points="303.78,118.51 303.78,121.27 290.5,121.27 290.5,103.57 303.42,103.57 303.42,106.32 293.79,106.32 
				293.79,110.93 302.34,110.93 302.34,113.63 293.79,113.63 293.79,118.51 			"/>
			<path d="M334.48,121.27l-3.62-5.18c-0.15,0.02-0.38,0.03-0.68,0.03h-4v5.16h-3.29v-17.7h7.28c1.53,0,2.87,0.25,4.01,0.76
				c1.14,0.51,2.01,1.23,2.62,2.18c0.61,0.94,0.91,2.06,0.91,3.36c0,1.33-0.32,2.48-0.97,3.44c-0.65,0.96-1.58,1.68-2.79,2.15
				l4.07,5.82H334.48z M333.29,107.26c-0.74-0.61-1.83-0.91-3.26-0.91h-3.84v7.06h3.84c1.43,0,2.52-0.31,3.26-0.92
				c0.74-0.62,1.11-1.49,1.11-2.62C334.41,108.73,334.04,107.87,333.29,107.26"/>
			<polygon points="356.56,118.51 356.56,121.27 343.28,121.27 343.28,103.57 356.2,103.57 356.2,106.32 346.57,106.32 
				346.57,110.93 355.12,110.93 355.12,113.63 346.57,113.63 346.57,118.51 			"/>
			<polygon points="362.12,103.57 365.41,103.57 365.41,118.49 374.67,118.49 374.67,121.27 362.12,121.27 			"/>
			<rect x="379.17" y="103.57" width="3.29" height="17.7"/>
			<path d="M401.22,112.22h3.11v7.06c-0.91,0.72-1.97,1.28-3.19,1.67c-1.21,0.39-2.46,0.58-3.74,0.58c-1.8,0-3.43-0.39-4.88-1.18
				c-1.45-0.78-2.59-1.87-3.41-3.25c-0.83-1.38-1.24-2.94-1.24-4.68c0-1.74,0.41-3.3,1.24-4.68c0.83-1.38,1.97-2.47,3.43-3.25
				c1.46-0.78,3.1-1.18,4.92-1.18c1.48,0,2.83,0.24,4.05,0.73c1.21,0.49,2.23,1.21,3.06,2.15l-2.08,2.02
				c-1.35-1.35-2.98-2.02-4.88-2.02c-1.25,0-2.36,0.26-3.33,0.78c-0.97,0.52-1.73,1.26-2.28,2.2c-0.55,0.94-0.82,2.02-0.82,3.24
				c0,1.18,0.27,2.24,0.82,3.19c0.55,0.95,1.31,1.69,2.28,2.23c0.97,0.54,2.07,0.81,3.3,0.81c1.38,0,2.6-0.3,3.64-0.91V112.22z"/>
			<rect x="410.55" y="103.57" width="3.29" height="17.7"/>
			<path d="M423.9,120.35c-1.45-0.78-2.59-1.87-3.41-3.26c-0.83-1.39-1.24-2.95-1.24-4.67c0-1.72,0.41-3.27,1.24-4.67
				c0.83-1.39,1.96-2.48,3.41-3.26c1.45-0.78,3.08-1.18,4.88-1.18c1.8,0,3.43,0.39,4.88,1.18c1.45,0.78,2.59,1.87,3.41,3.25
				c0.83,1.38,1.24,2.94,1.24,4.68c0,1.74-0.41,3.3-1.24,4.68c-0.83,1.38-1.96,2.47-3.41,3.25c-1.45,0.78-3.08,1.18-4.88,1.18
				C426.98,121.52,425.35,121.13,423.9,120.35 M431.97,117.84c0.94-0.53,1.69-1.27,2.23-2.23c0.54-0.95,0.81-2.02,0.81-3.2
				c0-1.18-0.27-2.25-0.81-3.2c-0.54-0.95-1.28-1.69-2.23-2.23c-0.94-0.53-2.01-0.8-3.19-0.8c-1.18,0-2.24,0.26-3.19,0.8
				c-0.94,0.53-1.69,1.27-2.22,2.23c-0.54,0.95-0.81,2.02-0.81,3.2c0,1.18,0.27,2.25,0.81,3.2c0.54,0.95,1.28,1.69,2.22,2.23
				c0.94,0.53,2.01,0.8,3.19,0.8C429.96,118.64,431.03,118.37,431.97,117.84"/>
			<polygon points="459.43,103.57 459.43,121.27 456.73,121.27 446.97,109.28 446.97,121.27 443.7,121.27 443.7,103.57 
				446.41,103.57 456.17,115.55 456.17,103.57 			"/>
		</g>
	</g>
</g>
</svg>
