<svg xmlns="http://www.w3.org/2000/svg" viewBox="0 0 916 140">
	<polygon points="121.16,0.03 40.39,0.03 36.56,6.66 124.99,6.66"/>
	<polygon points="102.59,44.56 136.21,26.1 127.82,11.57 33.73,11.57 25.26,26.21 58.68,44.56"/>
	<polygon points="0,70 40.39,139.97 48.14,139.97 3.96,63.14"/>
	<polygon points="156.32,63.14 112.14,139.97 119.89,139.97 160.28,70"/>
	<polygon points="19.57,36.09 7.72,56.63 50.9,130.31 56.56,139.97 75.08,139.97 75.08,85.56 59.02,57.75"/>
	<polygon points="141.99,36.09 102.54,57.75 86.47,85.56 86.47,139.97 105,139.97 110.67,130.31 153.84,56.63"/>
	<polygon points="220.37,75.48 220.37,26.56 228.49,18.45 277.4,18.45 277.4,29.86 231.79,29.86 231.79,41.28 265.98,41.28 265.98,52.65 231.79,52.65 231.79,75.48"/>
	<path d="M343.41,18.45l8.11,8.11v40.81l-8.11,8.11h-40.8l-8.11-8.11V26.56l8.11-8.11C302.61,18.45,343.41,18.45,343.41,18.45z M305.92,64.07h34.2V29.86h-34.2V64.07z"/>
	<polygon points="368.62,44.58 368.62,26.56 376.73,18.45 425.65,18.45 425.65,29.86 380.04,29.86 380.04,41.28 417.53,41.28 425.65,49.35 425.65,67.37 417.53,75.48 368.62,75.48 368.62,64.07 414.23,64.07 414.23,52.65 376.73,52.65"/>
	<polygon points="465.57,29.86 442.75,29.86 442.75,18.45 499.77,18.45 499.77,29.86 476.94,29.86 476.94,75.48 465.57,75.48"/>
	<polygon points="516.87,26.56 524.98,18.45 573.89,18.45 573.89,29.86 528.28,29.86 528.28,41.28 562.48,41.28 562.48,52.65 528.28,52.65 528.28,64.07 573.89,64.07 573.89,75.48 524.98,75.48 516.87,67.37"/>
	<path d="M639.91,18.45l8.11,8.11v18.02l-8.11,8.07h-6.6l14.72,14.72l-8.11,8.11l-22.79-22.83h-14.72v22.83h-11.41V26.56l8.11-8.11C599.12,18.45,639.91,18.45,639.91,18.45z M602.41,41.28h34.2V29.86h-34.2V41.28z"/>
	<polygon points="665.11,44.58 665.11,26.56 673.23,18.45 722.14,18.45 722.14,29.86 676.53,29.86 676.53,41.28 714.03,41.28 722.14,49.35 722.14,67.37 714.03,75.48 665.11,75.48 665.11,64.07 710.73,64.07 710.73,52.65 673.23,52.65"/>
	<path d="M833.77,18.45l8.11,8.11v18.02l-8.11,8.07h-37.5v22.83h-11.42V26.56l8.11-8.11C792.96,18.45,833.77,18.45,833.77,18.45z M796.26,41.28h34.2V29.86h-34.2V41.28z"/>
	<polygon points="858.97,26.56 867.09,18.45 916,18.45 916,29.86 870.39,29.86 870.39,64.07 916,64.07 916,75.48 867.09,75.48 858.97,67.37"/>
	<path d="M234.23,112.25h3.11v7.06c-0.91,0.72-1.97,1.28-3.19,1.67c-1.21,0.39-2.46,0.58-3.74,0.58c-1.8,0-3.43-0.39-4.88-1.18c-1.45-0.78-2.59-1.87-3.41-3.25c-0.83-1.38-1.24-2.94-1.24-4.68s0.41-3.3,1.24-4.68c0.83-1.38,1.97-2.47,3.43-3.25c1.46-0.78,3.1-1.18,4.92-1.18c1.48,0,2.83,0.24,4.05,0.73c1.21,0.49,2.23,1.21,3.06,2.15l-2.08,2.02c-1.35-1.35-2.98-2.02-4.88-2.02c-1.25,0-2.36,0.26-3.33,0.78s-1.73,1.26-2.28,2.2c-0.55,0.94-0.82,2.02-0.82,3.24c0,1.18,0.27,2.24,0.82,3.19c0.55,0.95,1.31,1.69,2.28,2.23s2.07,0.81,3.3,0.81c1.38,0,2.6-0.3,3.64-0.91L234.23,112.25L234.23,112.25z"/>
	<path d="M255.05,117.2h-8.85l-1.75,4.1h-3.39l7.97-17.7h3.24l7.99,17.7h-3.44L255.05,117.2z M253.96,114.62l-3.34-7.74l-3.31,7.74H253.96z"/>
	<polygon points="280.65,121.3 280.63,109.57 274.81,119.28 273.34,119.28 267.53,109.72 267.53,121.3 264.4,121.3 264.4,103.6 267.1,103.6 274.13,115.33 281.03,103.6 283.74,103.6 283.76,121.3"/>
	<polygon points="303.72,118.54 303.72,121.3 290.44,121.3 290.44,103.6 303.36,103.6 303.36,106.35 293.73,106.35 293.73,110.96 302.28,110.96 302.28,113.66 293.73,113.66 293.73,118.54"/>
	<path d="M334.41,121.3l-3.62-5.18c-0.15,0.02-0.38,0.03-0.68,0.03h-4v5.16h-3.29v-17.7h7.28c1.53,0,2.87,0.25,4.01,0.76s2.01,1.23,2.62,2.18c0.61,0.94,0.91,2.06,0.91,3.36c0,1.33-0.32,2.48-0.97,3.44c-0.65,0.96-1.58,1.68-2.79,2.15l4.07,5.82h-3.54V121.3z M333.22,107.29c-0.74-0.61-1.83-0.91-3.26-0.91h-3.84v7.06h3.84c1.43,0,2.52-0.31,3.26-0.92c0.74-0.62,1.11-1.49,1.11-2.62C334.34,108.76,333.97,107.9,333.22,107.29"/>
	<polygon points="356.49,118.54 356.49,121.3 343.21,121.3 343.21,103.6 356.13,103.6 356.13,106.35 346.5,106.35 346.5,110.96 355.05,110.96 355.05,113.66 346.5,113.66 346.5,118.54"/>
	<polygon points="362.04,103.6 365.33,103.6 365.33,118.52 374.59,118.52 374.59,121.3 362.04,121.3"/>
	<rect x="379.09" y="103.6" width="3.29" height="17.7"/>
	<path d="M401.14,112.25h3.11v7.06c-0.91,0.72-1.97,1.28-3.19,1.67c-1.21,0.39-2.46,0.58-3.74,0.58c-1.8,0-3.43-0.39-4.88-1.18c-1.45-0.78-2.59-1.87-3.41-3.25c-0.83-1.38-1.24-2.94-1.24-4.68s0.41-3.3,1.24-4.68c0.83-1.38,1.97-2.47,3.43-3.25c1.46-0.78,3.1-1.18,4.92-1.18c1.48,0,2.83,0.24,4.05,0.73c1.21,0.49,2.23,1.21,3.06,2.15l-2.08,2.02c-1.35-1.35-2.98-2.02-4.88-2.02c-1.25,0-2.36,0.26-3.33,0.78c-0.97,0.52-1.73,1.26-2.28,2.2c-0.55,0.94-0.82,2.02-0.82,3.24c0,1.18,0.27,2.24,0.82,3.19c0.55,0.95,1.31,1.69,2.28,2.23c0.97,0.54,2.07,0.81,3.3,0.81c1.38,0,2.6-0.3,3.64-0.91V112.25z"/>
	<rect x="410.46" y="103.6" width="3.29" height="17.7"/>
	<path d="M423.81,120.38c-1.45-0.78-2.59-1.87-3.41-3.26c-0.83-1.39-1.24-2.95-1.24-4.67s0.41-3.27,1.24-4.67c0.83-1.39,1.96-2.48,3.41-3.26c1.45-0.78,3.08-1.18,4.88-1.18c1.8,0,3.43,0.39,4.88,1.18c1.45,0.78,2.59,1.87,3.41,3.25c0.83,1.38,1.24,2.94,1.24,4.68s-0.41,3.3-1.24,4.68s-1.96,2.47-3.41,3.25s-3.08,1.18-4.88,1.18C426.89,121.55,425.26,121.16,423.81,120.38 M431.88,117.87c0.94-0.53,1.69-1.27,2.23-2.23c0.54-0.95,0.81-2.02,0.81-3.2s-0.27-2.25-0.81-3.2c-0.54-0.95-1.28-1.69-2.23-2.23c-0.94-0.53-2.01-0.8-3.19-0.8s-2.24,0.26-3.19,0.8c-0.94,0.53-1.69,1.27-2.22,2.23c-0.54,0.95-0.81,2.02-0.81,3.2s0.27,2.25,0.81,3.2s1.28,1.69,2.22,2.23c0.94,0.53,2.01,0.8,3.19,0.8S430.94,118.4,431.88,117.87"/>
	<polygon points="459.33,103.6 459.33,121.3 456.64,121.3 446.88,109.31 446.88,121.3 443.61,121.3 443.61,103.6 446.32,103.6 456.08,115.58 456.08,103.6"/>
</svg>
