<svg aria-hidden="true" style="width: 0px; height: 0px; overflow: hidden; position: absolute;" xmlns="http://www.w3.org/2000/svg">
    <symbol id="user" viewBox="0 0 512 512">
      <path d="M256 0C114.6 0 0 114.6 0 256s114.6 256 256 256s256-114.6 256-256S397.4 0 256 0zM256 480c-47.24 0-91.04-14.78-127.2-39.84C132.9 390.9 173.8 352 224 352h64c50.25 0 91.14 38.94 95.21 88.16C347 465.2 303.2 480 256 480zM411.7 416.7C397.6 361.3 347.7 320 288 320H224c-59.73 0-109.6 41.3-123.7 96.72C58.27 375.1 32 319 32 256c0-123.5 100.5-224 224-224s224 100.5 224 224C480 319 453.7 375.1 411.7 416.7zM256 128C211.8 128 176 163.8 176 208C176 252.2 211.8 288 256 288s80-35.82 80-80C336 163.8 300.2 128 256 128zM256 256C229.5 256 208 234.5 208 208S229.5 160 256 160s48 21.53 48 48S282.5 256 256 256z"/>
    </symbol>
    <symbol id="moon" viewBox="0 0 512 512">
      <path d="M428.3 367.5c-5.609-9.312-16.08-13.91-26.75-11.97c-42.39 8.188-85.83-2.938-119.2-30.5C248.4 297 228.9 255.5 228.9 211.3c0-52.75 28.2-101.8 73.59-127.8c9.453-5.406 14.38-15.88 12.55-26.66c-1.812-10.75-9.891-19-20.61-21C283.1 33.66 265.3 32 253.9 32C131.5 32 32 132.5 32 256s99.55 224 221.9 224c67.19 0 130-30.25 172.4-83C433.1 388.4 433.9 376.9 428.3 367.5zM253.9 448C149.2 448 64 361.9 64 256s85.19-192 189.9-192c4.891 0 11.53 .4062 18.09 1.031C225.3 98.34 196.9 152.9 196.9 211.3c0 53.84 23.7 104.3 65.05 138.5c36.25 29.94 82.17 43.88 128.5 39.69C354.8 426.8 305.8 448 253.9 448z"/>
    </symbol>
    <symbol id="cart" viewBox="0 0 576 576">
      <path d="M81.12,32c7.47,0,13.95,5.17,15.6,12.45l4.4,19.55h441.8c20.3,0,36.5,20.25,30.8,40.66l-54,192.04c-3.9,13.8-16.5,23.3-30.8,23.3h-329.6l14.6,64h323.2c8.8,0,16,7.2,16,16s-7.2,16-16,16h-336c-7.5,0-13.9-5.2-15.6-12.5L68.35,64H17.12c-8.84,0-16-7.16-16-16c0-8.84,7.16-16,16-16H81.12z M108.42,96l42.8,192h337.7l54-192H108.42z M129.12,488c0-30.9,25.1-56,56-56s56,25.1,56,56s-25.1,56-56,56S129.12,518.9,129.12,488z M185.12,512c13.3,0,24-10.7,24-24s-10.7-24-24-24s-24,10.7-24,24S171.82,512,185.12,512z M513.12,488c0,30.9-25.1,56-56,56s-56-25.1-56-56s25.1-56,56-56S513.12,457.1,513.12,488z M457.12,464c-13.3,0-24,10.7-24,24s10.7,24,24,24s24-10.7,24-24S470.42,464,457.12,464z"/>
    </symbol>
    <symbol id="burger" viewBox="0 0 512 512">
      <path d="M32,96c0-8.84,7.16-16,16-16h416c8.8,0,16,7.16,16,16s-7.2,16-16,16H48C39.16,112,32,104.84,32,96z M32,256c0-8.8,7.16-16,16-16h416c8.8,0,16,7.2,16,16c0,8.8-7.2,16-16,16H48C39.16,272,32,264.8,32,256z M464,432H48c-8.84,0-16-7.2-16-16s7.16-16,16-16h416c8.8,0,16,7.2,16,16S472.8,432,464,432z"/>
    </symbol>
    <symbol id="close" viewBox="0 0 512 512">
      <path d="M411.3,411.32c-6.25,6.25-16.37,6.25-22.63,0L256,278.62l-132.7,132.7c-6.25,6.25-16.37,6.25-22.63,0c-6.25-6.25-6.25-16.37,0-22.63L233.4,256.02l-132.71-132.7c-6.25-6.25-6.25-16.37,0-22.63c6.25-6.25,16.37-6.25,22.63,0L256,233.41l132.7-132.7c6.25-6.25,16.37-6.25,22.63,0c6.25,6.25,6.25,16.37,0,22.63L278.6,256.02l132.7,132.7C417.6,394.92,417.6,405.12,411.3,411.32z"/>
    </symbol>
    <symbol id="arrow_right" viewBox="0 0 30 30">
      <path d="M24.2,15.8h-19c-0.4,0-0.8-0.3-0.8-0.8s0.3-0.8,0.8-0.8h19c0.4,0,0.8,0.3,0.8,0.8S24.6,15.8,24.2,15.8z"/>
      <path d="M17.2,23.3c-0.2,0-0.4-0.1-0.5-0.2c-0.3-0.3-0.3-0.8,0-1.1l7.1-7.1l-7.1-7.1c-0.3-0.3-0.3-0.8,0-1.1s0.8-0.3,1.1,0l7.6,7.6c0.3,0.3,0.3,0.8,0,1.1l-7.6,7.6C17.5,23.3,17.4,23.3,17.2,23.3z"/>
    </symbol>
    <symbol id="logo" viewBox="0 0 916 140">
      <polygon points="121.16,0.03 40.39,0.03 36.56,6.66 124.99,6.66"/>
    	<polygon points="102.59,44.56 136.21,26.1 127.82,11.57 33.73,11.57 25.26,26.21 58.68,44.56"/>
    	<polygon points="0,70 40.39,139.97 48.14,139.97 3.96,63.14"/>
    	<polygon points="156.32,63.14 112.14,139.97 119.89,139.97 160.28,70"/>
    	<polygon points="19.57,36.09 7.72,56.63 50.9,130.31 56.56,139.97 75.08,139.97 75.08,85.56 59.02,57.75"/>
    	<polygon points="141.99,36.09 102.54,57.75 86.47,85.56 86.47,139.97 105,139.97 110.67,130.31 153.84,56.63"/>
    	<polygon points="220.37,75.48 220.37,26.56 228.49,18.45 277.4,18.45 277.4,29.86 231.79,29.86 231.79,41.28 265.98,41.28 265.98,52.65 231.79,52.65 231.79,75.48"/>
    	<path d="M343.41,18.45l8.11,8.11v40.81l-8.11,8.11h-40.8l-8.11-8.11V26.56l8.11-8.11C302.61,18.45,343.41,18.45,343.41,18.45z M305.92,64.07h34.2V29.86h-34.2V64.07z"/>
    	<polygon points="368.62,44.58 368.62,26.56 376.73,18.45 425.65,18.45 425.65,29.86 380.04,29.86 380.04,41.28 417.53,41.28 425.65,49.35 425.65,67.37 417.53,75.48 368.62,75.48 368.62,64.07 414.23,64.07 414.23,52.65 376.73,52.65"/>
    	<polygon points="465.57,29.86 442.75,29.86 442.75,18.45 499.77,18.45 499.77,29.86 476.94,29.86 476.94,75.48 465.57,75.48"/>
    	<polygon points="516.87,26.56 524.98,18.45 573.89,18.45 573.89,29.86 528.28,29.86 528.28,41.28 562.48,41.28 562.48,52.65 528.28,52.65 528.28,64.07 573.89,64.07 573.89,75.48 524.98,75.48 516.87,67.37"/>
    	<path d="M639.91,18.45l8.11,8.11v18.02l-8.11,8.07h-6.6l14.72,14.72l-8.11,8.11l-22.79-22.83h-14.72v22.83h-11.41V26.56l8.11-8.11C599.12,18.45,639.91,18.45,639.91,18.45z M602.41,41.28h34.2V29.86h-34.2V41.28z"/>
    	<polygon points="665.11,44.58 665.11,26.56 673.23,18.45 722.14,18.45 722.14,29.86 676.53,29.86 676.53,41.28 714.03,41.28 722.14,49.35 722.14,67.37 714.03,75.48 665.11,75.48 665.11,64.07 710.73,64.07 710.73,52.65 673.23,52.65"/>
    	<path d="M833.77,18.45l8.11,8.11v18.02l-8.11,8.07h-37.5v22.83h-11.42V26.56l8.11-8.11C792.96,18.45,833.77,18.45,833.77,18.45z M796.26,41.28h34.2V29.86h-34.2V41.28z"/>
    	<polygon points="858.97,26.56 867.09,18.45 916,18.45 916,29.86 870.39,29.86 870.39,64.07 916,64.07 916,75.48 867.09,75.48 858.97,67.37"/>
    	<path d="M234.23,112.25h3.11v7.06c-0.91,0.72-1.97,1.28-3.19,1.67c-1.21,0.39-2.46,0.58-3.74,0.58c-1.8,0-3.43-0.39-4.88-1.18c-1.45-0.78-2.59-1.87-3.41-3.25c-0.83-1.38-1.24-2.94-1.24-4.68s0.41-3.3,1.24-4.68c0.83-1.38,1.97-2.47,3.43-3.25c1.46-0.78,3.1-1.18,4.92-1.18c1.48,0,2.83,0.24,4.05,0.73c1.21,0.49,2.23,1.21,3.06,2.15l-2.08,2.02c-1.35-1.35-2.98-2.02-4.88-2.02c-1.25,0-2.36,0.26-3.33,0.78s-1.73,1.26-2.28,2.2c-0.55,0.94-0.82,2.02-0.82,3.24c0,1.18,0.27,2.24,0.82,3.19c0.55,0.95,1.31,1.69,2.28,2.23s2.07,0.81,3.3,0.81c1.38,0,2.6-0.3,3.64-0.91L234.23,112.25L234.23,112.25z"/>
    	<path d="M255.05,117.2h-8.85l-1.75,4.1h-3.39l7.97-17.7h3.24l7.99,17.7h-3.44L255.05,117.2z M253.96,114.62l-3.34-7.74l-3.31,7.74H253.96z"/>
    	<polygon points="280.65,121.3 280.63,109.57 274.81,119.28 273.34,119.28 267.53,109.72 267.53,121.3 264.4,121.3 264.4,103.6 267.1,103.6 274.13,115.33 281.03,103.6 283.74,103.6 283.76,121.3"/>
    	<polygon points="303.72,118.54 303.72,121.3 290.44,121.3 290.44,103.6 303.36,103.6 303.36,106.35 293.73,106.35 293.73,110.96 302.28,110.96 302.28,113.66 293.73,113.66 293.73,118.54"/>
    	<path d="M334.41,121.3l-3.62-5.18c-0.15,0.02-0.38,0.03-0.68,0.03h-4v5.16h-3.29v-17.7h7.28c1.53,0,2.87,0.25,4.01,0.76s2.01,1.23,2.62,2.18c0.61,0.94,0.91,2.06,0.91,3.36c0,1.33-0.32,2.48-0.97,3.44c-0.65,0.96-1.58,1.68-2.79,2.15l4.07,5.82h-3.54V121.3z M333.22,107.29c-0.74-0.61-1.83-0.91-3.26-0.91h-3.84v7.06h3.84c1.43,0,2.52-0.31,3.26-0.92c0.74-0.62,1.11-1.49,1.11-2.62C334.34,108.76,333.97,107.9,333.22,107.29"/>
    	<polygon points="356.49,118.54 356.49,121.3 343.21,121.3 343.21,103.6 356.13,103.6 356.13,106.35 346.5,106.35 346.5,110.96 355.05,110.96 355.05,113.66 346.5,113.66 346.5,118.54"/>
    	<polygon points="362.04,103.6 365.33,103.6 365.33,118.52 374.59,118.52 374.59,121.3 362.04,121.3"/>
    	<rect x="379.09" y="103.6" width="3.29" height="17.7"/>
    	<path d="M401.14,112.25h3.11v7.06c-0.91,0.72-1.97,1.28-3.19,1.67c-1.21,0.39-2.46,0.58-3.74,0.58c-1.8,0-3.43-0.39-4.88-1.18c-1.45-0.78-2.59-1.87-3.41-3.25c-0.83-1.38-1.24-2.94-1.24-4.68s0.41-3.3,1.24-4.68c0.83-1.38,1.97-2.47,3.43-3.25c1.46-0.78,3.1-1.18,4.92-1.18c1.48,0,2.83,0.24,4.05,0.73c1.21,0.49,2.23,1.21,3.06,2.15l-2.08,2.02c-1.35-1.35-2.98-2.02-4.88-2.02c-1.25,0-2.36,0.26-3.33,0.78c-0.97,0.52-1.73,1.26-2.28,2.2c-0.55,0.94-0.82,2.02-0.82,3.24c0,1.18,0.27,2.24,0.82,3.19c0.55,0.95,1.31,1.69,2.28,2.23c0.97,0.54,2.07,0.81,3.3,0.81c1.38,0,2.6-0.3,3.64-0.91V112.25z"/>
    	<rect x="410.46" y="103.6" width="3.29" height="17.7"/>
    	<path d="M423.81,120.38c-1.45-0.78-2.59-1.87-3.41-3.26c-0.83-1.39-1.24-2.95-1.24-4.67s0.41-3.27,1.24-4.67c0.83-1.39,1.96-2.48,3.41-3.26c1.45-0.78,3.08-1.18,4.88-1.18c1.8,0,3.43,0.39,4.88,1.18c1.45,0.78,2.59,1.87,3.41,3.25c0.83,1.38,1.24,2.94,1.24,4.68s-0.41,3.3-1.24,4.68s-1.96,2.47-3.41,3.25s-3.08,1.18-4.88,1.18C426.89,121.55,425.26,121.16,423.81,120.38 M431.88,117.87c0.94-0.53,1.69-1.27,2.23-2.23c0.54-0.95,0.81-2.02,0.81-3.2s-0.27-2.25-0.81-3.2c-0.54-0.95-1.28-1.69-2.23-2.23c-0.94-0.53-2.01-0.8-3.19-0.8s-2.24,0.26-3.19,0.8c-0.94,0.53-1.69,1.27-2.22,2.23c-0.54,0.95-0.81,2.02-0.81,3.2s0.27,2.25,0.81,3.2s1.28,1.69,2.22,2.23c0.94,0.53,2.01,0.8,3.19,0.8S430.94,118.4,431.88,117.87"/>
    	<polygon points="459.33,103.6 459.33,121.3 456.64,121.3 446.88,109.31 446.88,121.3 443.61,121.3 443.61,103.6 446.32,103.6 456.08,115.58 456.08,103.6"/>
    </symbol>
    <symbol id="logo_icon" viewBox="0 0 160 140">
      <polygon points="120.96,0.17 40.32,0.17 36.5,6.78 124.78,6.78"/>
    	<polygon points="102.41,44.61 135.98,26.18 127.6,11.68 33.67,11.68 25.22,26.29 58.58,44.61"/>
    	<polygon points="0,70 40.32,139.83 48.06,139.83 3.95,63.15"/>
    	<polygon points="156.05,63.15 111.94,139.83 119.68,139.83 160,70"/>
    	<polygon points="19.53,36.16 7.71,56.66 50.81,130.19 56.46,139.83 74.95,139.83 74.95,85.53 58.92,57.77"/>
    	<polygon points="141.75,36.16 102.36,57.77 86.32,85.53 86.32,139.83 104.82,139.83 110.48,130.19 153.57,56.66"/>
    </symbol>
    <symbol id="logo_text" viewBox="0 0 756 140">
      <polygon points="60.23,75.47 60.23,26.56 68.35,18.44 117.27,18.44 117.27,29.85 71.65,29.85 71.65,41.28  105.85,41.28 105.85,52.65 71.65,52.65 71.65,75.47"/>
      <path d="M183.29,18.44l8.11,8.11v40.81l-8.11,8.11h-40.81l-8.11-8.11V26.56l8.11-8.11C142.48,18.45,183.29,18.45,183.29,18.44z M145.79,64.07H180V29.85h-34.21V64.07z"/>
      <polygon points="208.51,44.58 208.51,26.56 216.62,18.44 265.55,18.44 265.55,29.85 219.93,29.85 219.93,41.28 257.43,41.28 265.55,49.35 265.55,67.36 257.43,75.47 208.51,75.47 208.51,64.07 254.13,64.07 254.13,52.65 216.62,52.65"/>
      <polygon points="305.48,29.85 282.65,29.85 282.65,18.44 339.68,18.44 339.68,29.85 316.85,29.85 316.85,75.47 305.48,75.47"/>
      <polygon points="356.79,26.56 364.9,18.44 413.82,18.44 413.82,29.85 368.2,29.85 368.2,41.28 402.41,41.28 402.41,52.65 368.2,52.65 368.2,64.07 413.82,64.07 413.82,75.47 364.9,75.47 356.79,67.36"/>
      <path d="M479.85,18.44l8.11,8.11v18.02l-8.11,8.07h-6.6l14.72,14.72l-8.11,8.11l-22.79-22.83h-14.72v22.83h-11.41V26.56l8.11-8.11C439.05,18.45,479.85,18.45,479.85,18.44z M442.34,41.28h34.21V29.85h-34.21V41.28z"/>
      <polygon points="505.06,44.58 505.06,26.56 513.18,18.44 562.1,18.44 562.1,29.85 516.48,29.85 516.48,41.28 553.99,41.28 562.1,49.35 562.1,67.36 553.99,75.47 505.06,75.47 505.06,64.07 550.69,64.07 550.69,52.65 513.18,52.65"/>
      <path d="M673.75,18.44l8.11,8.11v18.02l-8.11,8.07h-37.51v22.83h-11.42V26.56l8.11-8.11C632.93,18.45,673.75,18.45,673.75,18.44z M636.24,41.28h34.21V29.85h-34.21V41.28z"/>
      <polygon points="698.96,26.56 707.08,18.44 756,18.44 756,29.85 710.38,29.85 710.38,64.07 756,64.07 756,75.47 707.08,75.47 698.96,67.36"/>
      <path d="M74.09,112.25h3.11v7.06c-0.91,0.72-1.97,1.28-3.19,1.67c-1.21,0.39-2.46,0.58-3.74,0.58c-1.8,0-3.43-0.39-4.88-1.18c-1.45-0.78-2.59-1.87-3.41-3.25c-0.83-1.38-1.24-2.94-1.24-4.68s0.41-3.3,1.24-4.68s1.97-2.47,3.43-3.25c1.46-0.78,3.1-1.18,4.92-1.18c1.48,0,2.83,0.24,4.05,0.73c1.21,0.49,2.23,1.21,3.06,2.15l-2.08,2.02c-1.35-1.35-2.98-2.02-4.88-2.02c-1.25,0-2.36,0.26-3.33,0.78s-1.73,1.26-2.28,2.2c-0.55,0.94-0.82,2.02-0.82,3.24c0,1.18,0.27,2.24,0.82,3.19c0.55,0.95,1.31,1.69,2.28,2.23s2.07,0.81,3.3,0.81c1.38,0,2.6-0.3,3.64-0.91L74.09,112.25L74.09,112.25z"/>
      <path d="M94.91,117.19h-8.85l-1.75,4.1h-3.39l7.97-17.7h3.24l7.99,17.7h-3.44L94.91,117.19z M93.82,114.61l-3.34-7.74l-3.31,7.74H93.82z"/>
      <polygon points="120.52,121.29 120.5,109.57 114.68,119.28 113.21,119.28 107.4,109.72 107.4,121.29 104.26,121.29 104.26,103.6 106.97,103.6 114,115.33 120.9,103.6 123.61,103.6 123.63,121.29"/>
      <polygon points="143.59,118.54 143.59,121.29 130.31,121.29 130.31,103.6 143.23,103.6 143.23,106.35 133.6,106.35 133.6,110.96 142.15,110.96 142.15,113.65 133.6,113.65 133.6,118.54"/>
      <path d="M174.29,121.29l-3.62-5.18c-0.15,0.02-0.38,0.03-0.68,0.03h-4v5.16h-3.29v-17.7h7.28c1.53,0,2.87,0.25,4.01,0.76s2.01,1.23,2.62,2.18c0.61,0.94,0.91,2.06,0.91,3.36c0,1.33-0.32,2.48-0.97,3.44s-1.58,1.68-2.79,2.15l4.07,5.82h-3.54V121.29z M173.1,107.29c-0.74-0.61-1.83-0.91-3.26-0.91H166v7.06h3.84c1.43,0,2.52-0.31,3.26-0.92c0.74-0.62,1.11-1.49,1.11-2.62C174.22,108.76,173.85,107.9,173.1,107.29"/>
      <polygon points="196.37,118.54 196.37,121.29 183.09,121.29 183.09,103.6 196.01,103.6 196.01,106.35 186.38,106.35 186.38,110.96 194.93,110.96 194.93,113.65 186.38,113.65 186.38,118.54"/>
      <polygon points="201.93,103.6 205.22,103.6 205.22,118.51 214.48,118.51 214.48,121.29 201.93,121.29"/>
      <rect x="218.98" y="103.6" width="3.29" height="17.7"/>
      <path d="M241.03,112.25h3.11v7.06c-0.91,0.72-1.97,1.28-3.19,1.67c-1.21,0.39-2.46,0.58-3.74,0.58c-1.8,0-3.43-0.39-4.88-1.18c-1.45-0.78-2.59-1.87-3.41-3.25c-0.83-1.38-1.24-2.94-1.24-4.68s0.41-3.3,1.24-4.68s1.97-2.47,3.43-3.25s3.1-1.18,4.92-1.18c1.48,0,2.83,0.24,4.05,0.73c1.21,0.49,2.23,1.21,3.06,2.15l-2.08,2.02c-1.35-1.35-2.98-2.02-4.88-2.02c-1.25,0-2.36,0.26-3.33,0.78s-1.73,1.26-2.28,2.2c-0.55,0.94-0.82,2.02-0.82,3.24c0,1.18,0.27,2.24,0.82,3.19c0.55,0.95,1.31,1.69,2.28,2.23s2.07,0.81,3.3,0.81c1.38,0,2.6-0.3,3.64-0.91V112.25z"/>
      <rect x="250.36" y="103.6" width="3.29" height="17.7"/>
      <path d="M263.71,120.38c-1.45-0.78-2.59-1.87-3.41-3.26c-0.83-1.39-1.24-2.95-1.24-4.67s0.41-3.27,1.24-4.67c0.83-1.39,1.96-2.48,3.41-3.26s3.08-1.18,4.88-1.18c1.8,0,3.43,0.39,4.88,1.18c1.45,0.78,2.59,1.87,3.41,3.25c0.83,1.38,1.24,2.94,1.24,4.68s-0.41,3.3-1.24,4.68s-1.96,2.47-3.41,3.25s-3.08,1.18-4.88,1.18C266.79,121.54,265.16,121.15,263.71,120.38 M271.78,117.86c0.94-0.53,1.69-1.27,2.23-2.23c0.54-0.95,0.81-2.02,0.81-3.2s-0.27-2.25-0.81-3.2s-1.28-1.69-2.23-2.23c-0.94-0.53-2.01-0.8-3.19-0.8s-2.24,0.26-3.19,0.8c-0.94,0.53-1.69,1.27-2.22,2.23c-0.54,0.95-0.81,2.02-0.81,3.2s0.27,2.25,0.81,3.2s1.28,1.69,2.22,2.23c0.94,0.53,2.01,0.8,3.19,0.8S270.84,118.4,271.78,117.86"/>
      <polygon points="299.24,103.6 299.24,121.29 296.54,121.29 286.78,109.31 286.78,121.29 283.51,121.29 283.51,103.6 286.22,103.6 295.98,115.58 295.98,103.6"/>
    </symbol>
    <symbol id="arrow_down" viewBox="0 0 30 30">
      <path d="M14.2,24.2v-19c0-0.4,0.3-0.8,0.8-0.8s0.8,0.3,0.8,0.8v19c0,0.4-0.3,0.8-0.8,0.8S14.2,24.6,14.2,24.2z"/>
    	<path d="M6.7,17.2c0-0.2,0.1-0.4,0.2-0.5c0.3-0.3,0.8-0.3,1.1,0l7.1,7.1l7.1-7.1c0.3-0.3,0.8-0.3,1.1,0s0.3,0.8,0,1.1l-7.6,7.6c-0.3,0.3-0.8,0.3-1.1,0l-7.6-7.6C6.7,17.5,6.7,17.4,6.7,17.2z"/>
    </symbol>
    <symbol id="vk" viewBox="0 0 50 50">
      <path d="M31.3995 4.16406H18.6161C6.94115 4.16406 4.16406 6.94115 4.16406 18.5953V31.3786C4.16406 43.0516 6.92031 45.8307 18.5953 45.8307H31.3786C43.0516 45.8307 45.8307 43.0745 45.8307 31.3995V18.6161C45.8307 6.94115 43.0745 4.16406 31.3995 4.16406ZM37.8016 33.8932H34.762C33.612 33.8932 33.2661 32.962 31.2036 30.8995C29.4036 29.1641 28.6432 28.9474 28.187 28.9474C27.5578 28.9474 27.3849 29.1203 27.3849 29.9891V32.7224C27.3849 33.462 27.1453 33.8953 25.2141 33.8953C23.3398 33.7694 21.5222 33.1999 19.9111 32.2339C18.3 31.2679 16.9415 29.933 15.9474 28.3391C13.5873 25.4016 11.9452 21.9539 11.1516 18.2703C11.1516 17.8141 11.3245 17.4016 12.1932 17.4016H15.2307C16.012 17.4016 16.2932 17.7495 16.5995 18.5516C18.0745 22.8932 20.5911 26.6682 21.612 26.6682C22.0036 26.6682 22.1745 26.4953 22.1745 25.5182V21.0474C22.0453 19.0078 20.962 18.8349 20.962 18.0974C20.9759 17.9029 21.065 17.7214 21.2105 17.5915C21.356 17.4616 21.5463 17.3935 21.7411 17.4016H26.5161C27.1682 17.4016 27.3849 17.7266 27.3849 18.5078V24.5411C27.3849 25.1932 27.6661 25.4099 27.862 25.4099C28.2536 25.4099 28.5557 25.1932 29.2724 24.4766C30.8117 22.5994 32.0693 20.508 33.0057 18.2682C33.1014 17.9992 33.2826 17.7689 33.5214 17.6124C33.7603 17.4559 34.0438 17.3819 34.3286 17.4016H37.3682C38.2786 17.4016 38.4724 17.8578 38.2786 18.5078C37.1734 20.9837 35.8059 23.334 34.1995 25.5182C33.8724 26.0182 33.7411 26.2786 34.1995 26.8641C34.5016 27.3203 35.5661 28.2099 36.2828 29.0557C37.3243 30.0946 38.1891 31.2965 38.8432 32.6141C39.1036 33.4599 38.6682 33.8932 37.8016 33.8932Z"/>
    </symbol>
    <symbol id="yt" viewBox="0 0 50 50">
      <path d="M25.1594 6.25H25.4375C28.0063 6.25938 41.0219 6.35313 44.5313 7.29688C45.5922 7.5849 46.5589 8.14632 47.3349 8.92503C48.1108 9.70373 48.6688 10.6725 48.9531 11.7344C49.2688 12.9219 49.4906 14.4938 49.6406 16.1156L49.6719 16.4406L49.7406 17.2531L49.7656 17.5781C49.9688 20.4344 49.9938 23.1094 49.9969 23.6937V23.9281C49.9938 24.5344 49.9656 27.3906 49.7406 30.3656L49.7156 30.6938L49.6875 31.0188C49.5313 32.8062 49.3 34.5813 48.9531 35.8875C48.6697 36.9499 48.112 37.919 47.3359 38.6979C46.5598 39.4767 45.5926 40.0378 44.5313 40.325C40.9063 41.3 27.1281 41.3688 25.2188 41.3719H24.775C23.8094 41.3719 19.8156 41.3531 15.6281 41.2094L15.0969 41.1906L14.825 41.1781L14.2906 41.1562L13.7563 41.1344C10.2875 40.9813 6.98438 40.7344 5.4625 40.3219C4.40153 40.035 3.43458 39.4743 2.65851 38.6961C1.88245 37.9178 1.32452 36.9493 1.04063 35.8875C0.69375 34.5844 0.4625 32.8062 0.30625 31.0188L0.28125 30.6906L0.25625 30.3656C0.102024 28.2481 0.0165621 26.1262 0 24.0031L0 23.6187C0.00625 22.9469 0.03125 20.625 0.2 18.0625L0.221875 17.7406L0.23125 17.5781L0.25625 17.2531L0.325 16.4406L0.35625 16.1156C0.50625 14.4938 0.728125 12.9187 1.04375 11.7344C1.32717 10.672 1.88488 9.70285 2.66098 8.92401C3.43708 8.14517 4.40428 7.58404 5.46563 7.29688C6.9875 6.89063 10.2906 6.64062 13.7594 6.48437L14.2906 6.4625L14.8281 6.44375L15.0969 6.43438L15.6313 6.4125C18.6053 6.3168 21.5806 6.26367 24.5563 6.25313H25.1594V6.25ZM20 16.2812V31.3375L32.9906 23.8125L20 16.2812Z"/>
    </symbol>
    <symbol id="wa" viewBox="0 0 50 50">
      <path d="M25.0052 4.16406C36.5115 4.16406 45.8386 13.4911 45.8386 24.9974C45.8386 36.5036 36.5115 45.8307 25.0052 45.8307C21.3235 45.8367 17.7066 44.8623 14.5261 43.0078L4.18024 45.8307L6.9969 35.4807C5.14085 32.2992 4.16575 28.6807 4.1719 24.9974C4.1719 13.4911 13.499 4.16406 25.0052 4.16406ZM17.9052 15.2057L17.4886 15.2224C17.2188 15.2388 16.9552 15.3097 16.7136 15.4307C16.4876 15.5587 16.2813 15.7187 16.1011 15.9057C15.8511 16.1411 15.7094 16.3453 15.5573 16.5432C14.7867 17.5451 14.3718 18.7751 14.3782 20.0391C14.3823 21.0599 14.649 22.0536 15.0657 22.9828C15.9177 24.862 17.3198 26.8516 19.1698 28.6953C19.6157 29.1391 20.0532 29.5849 20.524 29.9995C22.8227 32.0234 25.562 33.4829 28.524 34.262L29.7073 34.4432C30.0927 34.4641 30.4782 34.4349 30.8657 34.4161C31.4724 34.3848 32.0648 34.2205 32.6011 33.9349C32.8739 33.7944 33.1401 33.6414 33.399 33.4766C33.399 33.4766 33.4886 33.4182 33.6594 33.2891C33.9407 33.0807 34.1136 32.9328 34.3469 32.6891C34.5198 32.5099 34.6698 32.2995 34.7844 32.0599C34.9469 31.7203 35.1094 31.0724 35.1761 30.5328C35.2261 30.1203 35.2115 29.8953 35.2052 29.7557C35.1969 29.5328 35.0115 29.3016 34.8094 29.2036L33.5969 28.6599C33.5969 28.6599 31.7844 27.8703 30.6761 27.3661C30.5601 27.3155 30.4358 27.2866 30.3094 27.2807C30.1669 27.2661 30.0228 27.2821 29.887 27.3278C29.7512 27.3734 29.6267 27.4476 29.5219 27.5453C29.5115 27.5411 29.3719 27.6599 27.8657 29.4849C27.7792 29.6011 27.6601 29.6889 27.5236 29.7371C27.387 29.7853 27.2392 29.7918 27.099 29.7557C26.9633 29.7193 26.8303 29.6734 26.7011 29.6182C26.4427 29.5099 26.3532 29.4682 26.1761 29.3932C24.9804 28.8714 23.8733 28.1665 22.8948 27.3036C22.6323 27.0745 22.3886 26.8245 22.1386 26.5828C21.319 25.7979 20.6047 24.9099 20.0136 23.9411L19.8907 23.7432C19.8024 23.6102 19.731 23.4668 19.6782 23.3161C19.599 23.0099 19.8052 22.7641 19.8052 22.7641C19.8052 22.7641 20.3115 22.2099 20.5469 21.9099C20.7761 21.6182 20.9698 21.3349 21.0948 21.1328C21.3407 20.737 21.4177 20.3307 21.2886 20.0161C20.7052 18.5911 20.1011 17.1724 19.4802 15.7641C19.3573 15.4849 18.9927 15.2849 18.6615 15.2453C18.549 15.2328 18.4365 15.2203 18.324 15.212C18.0442 15.1981 17.7639 15.2009 17.4844 15.2203L17.9032 15.2036L17.9052 15.2057Z"/>
    </symbol>
    <symbol id="tg" viewBox="0 0 50 50">
      <path d="M24.9974 4.16406C13.4974 4.16406 4.16406 13.4974 4.16406 24.9974C4.16406 36.4974 13.4974 45.8307 24.9974 45.8307C36.4974 45.8307 45.8307 36.4974 45.8307 24.9974C45.8307 13.4974 36.4974 4.16406 24.9974 4.16406ZM34.6641 18.3307C34.3516 21.6224 32.9974 29.6224 32.3099 33.3099C32.0182 34.8724 31.4349 35.3932 30.8932 35.4557C29.6849 35.5599 28.7682 34.6641 27.6016 33.8932C25.7682 32.6849 24.7266 31.9349 22.9557 30.7682C20.8932 29.4141 22.2266 28.6641 23.4141 27.4557C23.7266 27.1432 29.0599 22.2891 29.1641 21.8516C29.1785 21.7853 29.1766 21.7165 29.1585 21.6512C29.1403 21.5858 29.1065 21.5259 29.0599 21.4766C28.9349 21.3724 28.7682 21.4141 28.6224 21.4349C28.4349 21.4766 25.5182 23.4141 19.8307 27.2474C18.9974 27.8099 18.2474 28.1016 17.5807 28.0807C16.8307 28.0599 15.4141 27.6641 14.3516 27.3099C13.0391 26.8932 12.0182 26.6641 12.1016 25.9349C12.1432 25.5599 12.6641 25.1849 13.6432 24.7891C19.7266 22.1432 23.7682 20.3932 25.7891 19.5599C31.5807 17.1432 32.7682 16.7266 33.5599 16.7266C33.7266 16.7266 34.1224 16.7682 34.3724 16.9766C34.5807 17.1432 34.6432 17.3724 34.6641 17.5391C34.6432 17.6641 34.6849 18.0391 34.6641 18.3307Z"/>
    </symbol>
    <symbol id="computer" viewBox="0 0 640 640">
      <path d="M0,384V160c0-35.35,28.65-64,64-64h320c35.3,0,64,28.65,64,64v224c0,35.3-28.7,64-64,64h-97.8l21.3,64H368c8.8,0,16,7.2,16,16s-7.2,16-16,16H80c-8.84,0-16-7.2-16-16s7.16-16,16-16h60.5l21.3-64H64C28.65,448,0,419.3,0,384L0,384z M384,128H64c-17.67,0-32,14.33-32,32v224c0,17.7,14.33,32,32,32h320c17.7,0,32-14.3,32-32V160C416,142.33,401.7,128,384,128z M273.8,512l-21.3-64h-57l-21.3,64H273.8z M536,400c0-13.3,10.7-24,24-24s24,10.7,24,24s-10.7,24-24,24S536,413.3,536,400z M480,144c0-26.51,21.5-48,48-48h64c26.5,0,48,21.49,48,48v352c0,26.5-21.5,48-48,48h-64c-26.5,0-48-21.5-48-48V144z M512,144v48h96v-48c0-8.84-7.2-16-16-16h-64C519.2,128,512,135.16,512,144z M512,224v32h96v-32H512z M528,512h64c8.8,0,16-7.2,16-16V288h-96v208C512,504.8,519.2,512,528,512z"/>
    </symbol>
    <symbol id="eye" viewBox="0 0 640 640">
      <path d="M448.01,320c0,70.7-57.3,128-128,128s-128-57.3-128-128s57.3-128,128-128S448.01,249.3,448.01,320z M320.01,224c-53.9,0-96,42.1-96,96c0,53,42.1,96,96,96c53,0,96-43,96-96C416.01,266.1,373.01,224,320.01,224z M512.61,176.6c46.8,43.4,78.1,94.5,92.9,131.1c3.3,7.9,3.3,16.7,0,24.6c-14.8,35.7-46.1,86.8-92.9,131.1c-47.1,43.8-111.8,80.6-192.6,80.6s-145.5-36.8-192.58-80.6c-46.8-44.3-78.08-95.4-92.96-131.1c-3.28-7.9-3.28-16.7,0-24.6c14.88-36.6,46.16-87.7,92.96-131.1C174.51,132.84,239.21,96,320.01,96S465.51,132.84,512.61,176.6L512.61,176.6z M64.01,320c13.33,32,42.13,80,85.2,120c43.1,40,100.4,72,170.8,72s127.7-32,170.8-72s71.9-88,85.2-120c-13.3-32.9-42.1-80.9-85.2-120c-43.1-40.01-100.4-72-170.8-72s-127.7,31.99-170.8,72C106.14,239.1,77.34,287.1,64.01,320L64.01,320z"/>
    </symbol>
    <symbol id="eye_slash" viewBox="0 0 640 640">
      <path d="M633.9,547.4c7,5.5,8.1,14.7,2.7,22.5c-5.5,7-15.6,8.1-22.5,2.7L6.08,92.56c-6.94-5.48-8.12-15.54-2.64-22.47c5.48-6.94,15.54-8.12,22.47-2.64L633.9,547.4z M605.5,332.3c-10.2,24.6-28.3,57-53.9,89l-25.1-19.8c23.6-30.4,40.3-59.4,49.5-81.5c-13.3-32.9-42.1-80.9-85.2-120c-43.1-40.01-100.4-72-170.8-72c-39.8,0-75.4,10.21-106.6,26.31l-27.3-21.53C224,110.8,268.8,95.1,320,95.1c80.8,0,145.5,37.74,192.6,81.5c46.8,43.4,78.1,94.5,92.9,131.1C608.8,315.6,608.8,324.4,605.5,332.3L605.5,332.3z M88.39,218.7l25.11,19.8c-23.64,29.5-40.27,59.4-50.4,80.6c14.23,32.9,43,80.9,86.1,120.9s100.4,72,169.9,72c40.7,0,76.3-10.2,107.5-26.3l27.3,21.5c-38.8,22-82.7,36.8-134.8,36.8c-79.9,0-144.6-36.8-191.7-80.6C80.62,419.1,49.34,368,34.46,332.3c-3.28-7.9-3.28-16.7,0-24.6C44.73,283.1,62.8,250.7,88.39,218.7L88.39,218.7z M191.1,319.1c0-5.4,1.4-11.5,2.2-17.6l30.9,24.4c3,50.3,43.9,90.1,94.9,90.1c6.5,0,12.1-0.5,17.4-1.4l30.9,24.3c-14.7,5.9-30.7,9.1-48.3,9.1C249.3,448,191.1,390.7,191.1,319.1z M448,319.1c0,7.2-0.5,13.3-1.3,19.4l-30.9-24.4c-3-50.3-44.8-91-96.7-91c-4.7,0-10.3,1.4-15.6,2.3l-30.9-24.3c14.7-5.9,30.7-10,46.5-10C390.7,191.1,448,249.3,448,319.1L448,319.1z"/>
    </symbol>
    <symbol id="file_check" viewBox="0 0 512 512">
      <path d="M429.3,125.3L322.8,18.8C310.7,6.74,294.5,0,277.5,0H128C92.65,0,64,28.65,64,64l0.01,384c0,35.35,28.65,64,64,64H384c35.35,0,64-28.65,64-64V170.5C448,153.5,441.3,137.3,429.3,125.3z M288,34.08c4.48,1.57,8.67,3.85,12.12,7.3l106.5,106.5c3.48,3.42,5.78,7.62,7.28,12.12H304c-8.8,0-16-7.2-16-16V34.08z M416,448c0,17.64-14.36,32-32,32H128c-17.64,0-32-14.36-32-32V64c0-17.64,14.36-32,32-32h128v112c0,26.5,21.5,48,48,48h112V448z M187.3,319.4c-6.25-6.25-16.38-6.25-22.62,0c-6.24,6.25-6.25,16.38,0,22.62l53.34,53.33c3.18,3.05,7.28,4.65,11.28,4.65s8.19-1.56,11.31-4.69l106.7-106.7c6.25-6.25,6.25-16.38,0-22.62s-16.38-6.25-22.62,0l-95.34,95.36L187.3,319.4z"/>
    </symbol>
    <symbol id="file_lines" viewBox="0 0 512 512">
      <path d="M429.3,125.3L322.8,18.8C310.7,6.74,294.5,0,277.5,0L128,0C92.65,0,64,28.65,64,64l0.01,384c0,35.35,28.65,64,64,64H384c35.35,0,64-28.65,64-64V170.5C448,153.5,441.3,137.3,429.3,125.3z M288,34.08c4.48,1.57,8.67,3.85,12.12,7.3l106.5,106.5c3.48,3.42,5.78,7.62,7.28,12.12H304c-8.8,0-16-7.2-16-16V34.08z M416,448c0,17.64-14.36,32-32,32H128c-17.64,0-32-14.36-32-32V64c0-17.64,14.36-32,32-32h128v112c0,26.5,21.5,48,48,48h112V448z M160,272c0,8.8,7.2,16,16,16h160c8.8,0,16-7.2,16-16s-7.2-16-16-16H176C167.2,256,160,263.2,160,272z M336,320H176c-8.8,0-16,7.2-16,16s7.2,16,16,16h160c8.84,0,16-7.16,16-16S344.8,320,336,320z M336,384H176c-8.8,0-16,7.2-16,16s7.2,16,16,16h160c8.84,0,16-7.16,16-16S344.8,384,336,384z"/>
    </symbol>
    <symbol id="gear" viewBox="0 0 512 512">
      <path d="M168 255.1C168 207.4 207.4 167.1 256 167.1C304.6 167.1 344 207.4 344 255.1C344 304.6 304.6 344 256 344C207.4 344 168 304.6 168 255.1zM256 199.1C225.1 199.1 200 225.1 200 255.1C200 286.9 225.1 311.1 256 311.1C286.9 311.1 312 286.9 312 255.1C312 225.1 286.9 199.1 256 199.1zM65.67 230.6L25.34 193.8C14.22 183.7 11.66 167.2 19.18 154.2L49.42 101.8C56.94 88.78 72.51 82.75 86.84 87.32L138.8 103.9C152.2 93.56 167 84.96 182.8 78.43L194.5 25.16C197.7 10.47 210.7 0 225.8 0H286.2C301.3 0 314.3 10.47 317.5 25.16L329.2 78.43C344.1 84.96 359.8 93.56 373.2 103.9L425.2 87.32C439.5 82.75 455.1 88.78 462.6 101.8L492.8 154.2C500.3 167.2 497.8 183.7 486.7 193.8L446.3 230.6C447.4 238.9 448 247.4 448 255.1C448 264.6 447.4 273.1 446.3 281.4L486.7 318.2C497.8 328.3 500.3 344.8 492.8 357.8L462.6 410.2C455.1 423.2 439.5 429.2 425.2 424.7L373.2 408.1C359.8 418.4 344.1 427 329.2 433.6L317.5 486.8C314.3 501.5 301.3 512 286.2 512H225.8C210.7 512 197.7 501.5 194.5 486.8L182.8 433.6C167 427 152.2 418.4 138.8 408.1L86.84 424.7C72.51 429.2 56.94 423.2 49.42 410.2L19.18 357.8C11.66 344.8 14.22 328.3 25.34 318.2L65.67 281.4C64.57 273.1 64 264.6 64 255.1C64 247.4 64.57 238.9 65.67 230.6V230.6zM158.4 129.2L145.1 139.5L77.13 117.8L46.89 170.2L99.58 218.2L97.39 234.8C96.47 241.7 96 248.8 96 255.1C96 263.2 96.47 270.3 97.39 277.2L99.58 293.8L46.89 341.8L77.13 394.2L145.1 372.5L158.4 382.8C169.5 391.4 181.9 398.6 195 403.1L210.5 410.4L225.8 480H286.2L301.5 410.4L316.1 403.1C330.1 398.6 342.5 391.4 353.6 382.8L366.9 372.5L434.9 394.2L465.1 341.8L412.4 293.8L414.6 277.2C415.5 270.3 416 263.2 416 256C416 248.8 415.5 241.7 414.6 234.8L412.4 218.2L465.1 170.2L434.9 117.8L366.9 139.5L353.6 129.2C342.5 120.6 330.1 113.4 316.1 108L301.5 101.6L286.2 32H225.8L210.5 101.6L195 108C181.9 113.4 169.5 120.6 158.4 129.2H158.4z"/>
    </symbol>
    <symbol id="minus" viewBox="0 0 512 512">
      <path d="M464,256c0,8.8-7.2,16-16,16H64c-8.84,0-16-7.15-16-15.99C48,247.2,55.16,240,64,240h384C456.8,240,464,247.2,464,256z"/>
    </symbol>
    <symbol id="plus" viewBox="0 0 512 512">
      <path d="M464,255.99c0,8.8-7.2,16-16,16H272v176c0,8.84-7.16,16.01-16,16.01s-16-7.21-16-16.01v-176H64c-8.84,0-16-7.15-16-15.99c0-8.81,7.16-16.01,16-16.01h176v-176c0-8.84,7.16-15.99,16-15.99s16,7.15,16,15.99v176h176C456.8,239.99,464,247.19,464,255.99z"/>
    </symbol>
    <symbol id="pin" viewBox="0 0 512 512">
      <path d="M336,192.66c0,44.2-35.8,80-80,80s-80-35.8-80-80s35.8-80,80-80S336,148.46,336,192.66z M256,240.66c26.5,0,48-21.5,48-48s-21.5-48-48-48s-48,21.5-48,48S229.5,240.66,256,240.66z M448,192.66c0,87.4-117,243-168.3,307.2c-12.3,15.3-35.1,15.3-47.4,0C180.1,435.66,64,280.06,64,192.66c0-106.04,85.96-192,192-192C362,0.66,448,86.62,448,192.66L448,192.66z M256,32.66c-88.4,0-160,71.6-160,160c0,15.6,5.43,37,16.56,63.4c10.91,25.9,26.24,54,43.58,82.1c34.06,55.3,74.46,108.2,99.86,140.1c25.4-31.9,65.8-84.8,99.9-140.1c17.3-28.1,32.6-56.2,43.5-82.1c11.2-26.4,16.6-47.8,16.6-63.4C416,104.26,344.4,32.66,256,32.66z"/>
    </symbol>
    <symbol id="play" viewBox="0 0 512 512">
      <path d="M512 256C512 397.4 397.4 512 256 512C114.6 512 0 397.4 0 256C0 114.6 114.6 0 256 0C397.4 0 512 114.6 512 256zM176 168V344C176 352.7 180.7 360.7 188.3 364.9C195.8 369.2 205.1 369 212.5 364.5L356.5 276.5C363.6 272.1 368 264.4 368 256C368 247.6 363.6 239.9 356.5 235.5L212.5 147.5C205.1 142.1 195.8 142.8 188.3 147.1C180.7 151.3 176 159.3 176 168V168z"/>
    </symbol>
    <symbol id="square_question" viewBox="0 0 512 512">
      <path d="M285.6,128h-59.2c-36.6,0-66.4,29.8-66.4,66.4v9.6c0,8.84,7.16,16,16,16s16-7.2,16-16v-9.6c0-19,15.4-34.4,34.4-34.4h59.25c18.95,0,34.35,15.4,34.35,34.4c0,12.48-6.78,24-17.06,29.72L242.5,254.3c-11.4,6.4-18.5,18.4-18.5,31.5V304c0,8.8,7.2,16,16,16s16-7.2,16-16v-18.2c0-1.45,0.78-2.8,1.44-3.17l60.41-30.22C338.9,240.7,352,218.5,352,194.4C352,157.8,322.2,128,285.6,128z M240,344c-13.25,0-24,10.75-24,24s10.75,24,24,24s24-10.75,24-24S253.3,344,240,344z M416,32H96c-35.35,0-64,28.65-64,64v320c0,35.35,28.65,64,64,64h320c35.35,0,64-28.65,64-64V96C480,60.65,451.3,32,416,32z M448,416c0,17.64-14.36,32-32,32H96c-17.64,0-32-14.36-32-32V96c0-17.64,14.36-32,32-32h320c17.64,0,32,14.36,32,32V416z"/>
    </symbol>
    <symbol id="trash" viewBox="0 0 512 512">
      <path d="M464,64c8.8,0,16,7.16,16,16s-7.2,16-16,16h-18.3l-25.5,356.6c-2.3,33.5-31.1,59.4-63.8,59.4H155.6c-33.59,0-61.45-25.9-63.85-59.4L66.29,96H48c-8.84,0-16-7.16-16-16s7.16-16,16-16h95.1L169,22.56C177.8,8.53,193.2,0,209.7,0h92.6c16.5,0,31.9,8.53,39.8,22.56L368.9,64H464z M209.7,32c-5.5,0-10.6,2.84-13.5,7.52L180.9,64h150.2l-15.3-24.48c-2.9-4.68-8-7.52-13.5-7.52H209.7z M413.6,96H98.37l25.3,354.3c1.2,16.7,15.13,29.7,31.93,29.7h200.8c16.8,0,30.7-13,31.9-29.7L413.6,96z"/>
    </symbol>
    <symbol id="button_arrow" viewBox="0 0 16 16">
      <path d="M3.15,13.71L6.77,8L3.15,2.29h1.77L8.54,8l-3.62,5.71H3.15z M7.46,13.71L11.07,8L7.46,2.29h1.77L12.85,8l-3.62,5.71H7.46z"/>
    </symbol>
</svg>
