<?xml version="1.0" encoding="utf-8"?>
<!-- Generator: Adobe Illustrator 19.2.1, SVG Export Plug-In . SVG Version: 6.00 Build 0)  -->
<svg version="1.1" id="Слой_1" xmlns="http://www.w3.org/2000/svg" xmlns:xlink="http://www.w3.org/1999/xlink" x="0px" y="0px"
	 viewBox="0 0 30 30" style="enable-background:new 0 0 30 30;" xml:space="preserve">
<style type="text/css">
	.st0{fill:#4DAFB2;}
</style>
<g>
	<path class="st0" d="M5.8,14.3h19c0.4,0,0.8,0.3,0.8,0.8s-0.3,0.8-0.8,0.8h-19C5.4,15.8,5,15.4,5,15S5.4,14.3,5.8,14.3z"/>
	<path class="st0" d="M12.8,6.7c0.2,0,0.4,0.1,0.5,0.2c0.3,0.3,0.3,0.8,0,1.1L6.3,15l7.1,7.1c0.3,0.3,0.3,0.8,0,1.1s-0.8,0.3-1.1,0
		l-7.6-7.6c-0.3-0.3-0.3-0.8,0-1.1l7.6-7.6C12.5,6.7,12.6,6.7,12.8,6.7z"/>
</g>
</svg>
