<?xml version="1.0" encoding="utf-8"?>
<!-- Generator: Adobe Illustrator 19.2.1, SVG Export Plug-In . SVG Version: 6.00 Build 0)  -->
<svg version="1.1" id="Слой_1" xmlns="http://www.w3.org/2000/svg" xmlns:xlink="http://www.w3.org/1999/xlink" x="0px" y="0px"
	 viewBox="0 0 30 30" style="enable-background:new 0 0 30 30;" xml:space="preserve">
<path d="M29.2,8.5c-0.6-0.7-1.4-1.1-2.3-1.1H15.4c-0.4,0-0.7,0.3-0.7,0.7c0,0.4,0.4,0.7,0.7,0.7h11.5c0.4,0,0.9,0.2,1.2,0.5
	c0.3,0.4,0.4,0.8,0.3,1.3l-0.7,3.7h-8.2c-0.4,0-0.7,0.3-0.7,0.7c0,0.4,0.4,0.7,0.7,0.7h8l-0.7,3.6c-0.1,0.5-0.6,0.9-1.1,0.9H11.3
	c-0.5,0-1-0.4-1.1-0.9L7.3,3.3C7.2,2.9,6.9,2.7,6.6,2.7H0.8C0.4,2.7,0.1,3,0.1,3.4c0,0.4,0.4,0.7,0.7,0.7H6l2.8,15.7
	c0.1,1,0.9,1.8,1.9,2.1c-0.4,0.5-0.7,1.2-0.7,1.9c0,1.9,1.5,3.4,3.4,3.4s3.4-1.5,3.4-3.4c0-0.7-0.2-1.3-0.6-1.9h4.6
	c-0.4,0.5-0.6,1.2-0.6,1.9c0,1.9,1.5,3.4,3.4,3.4s3.4-1.5,3.4-3.4c0-0.7-0.2-1.4-0.6-1.9c1-0.2,1.8-1,2-2.1l1.6-8.8
	C30.1,10.2,29.8,9.3,29.2,8.5z M15.2,23.9c0,1-0.8,1.9-1.9,1.9s-1.9-0.8-1.9-1.9c0-1,0.8-1.9,1.9-1.9S15.2,22.8,15.2,23.9z
	 M23.5,25.7c-1,0-1.9-0.8-1.9-1.9c0-1,0.8-1.9,1.9-1.9s1.9,0.8,1.9,1.9C25.4,24.9,24.6,25.7,23.5,25.7z"/>
</svg>
