<?xml version="1.0" encoding="utf-8"?>
<!-- Generator: Adobe Illustrator 19.2.1, SVG Export Plug-In . SVG Version: 6.00 Build 0)  -->
<svg version="1.1" id="Слой_1" xmlns="http://www.w3.org/2000/svg" xmlns:xlink="http://www.w3.org/1999/xlink" x="0px" y="0px"
	 viewBox="0 0 576 576" style="enable-background:new 0 0 576 576;" xml:space="preserve">
<path class="st0" d="M81.12,32c7.47,0,13.95,5.17,15.6,12.45l4.4,19.55h441.8c20.3,0,36.5,20.25,30.8,40.66l-54,192.04
	c-3.9,13.8-16.5,23.3-30.8,23.3h-329.6l14.6,64h323.2c8.8,0,16,7.2,16,16s-7.2,16-16,16h-336c-7.5,0-13.9-5.2-15.6-12.5L68.35,64
	H17.12c-8.84,0-16-7.16-16-16c0-8.84,7.16-16,16-16H81.12z M108.42,96l42.8,192h337.7l54-192H108.42z M129.12,488
	c0-30.9,25.1-56,56-56s56,25.1,56,56s-25.1,56-56,56S129.12,518.9,129.12,488z M185.12,512c13.3,0,24-10.7,24-24s-10.7-24-24-24
	s-24,10.7-24,24S171.82,512,185.12,512z M513.12,488c0,30.9-25.1,56-56,56s-56-25.1-56-56s25.1-56,56-56S513.12,457.1,513.12,488z
	 M457.12,464c-13.3,0-24,10.7-24,24s10.7,24,24,24s24-10.7,24-24S470.42,464,457.12,464z"/>
</svg>
