<?xml version="1.0" encoding="utf-8"?>
<!-- Generator: Adobe Illustrator 19.2.1, SVG Export Plug-In . SVG Version: 6.00 Build 0)  -->
<svg version="1.1" id="Слой_1" xmlns="http://www.w3.org/2000/svg" xmlns:xlink="http://www.w3.org/1999/xlink" x="0px" y="0px"
	 viewBox="0 0 30 30" style="enable-background:new 0 0 30 30;" xml:space="preserve">
<path d="M6.6,3.6L15,12l8.4-8.4c0.2-0.2,0.4-0.3,0.7-0.4C24.3,3.1,24.5,3,24.9,3c0.6,0,1.1,0.3,1.5,0.6C26.7,4,27,4.6,27,5.1
	c0,0.3-0.1,0.5-0.2,0.8s-0.3,0.5-0.4,0.7L17.9,15l8.5,8.5c0.3,0.3,0.6,0.9,0.6,1.4c0,0.6-0.3,1.1-0.6,1.5C26,26.8,25.5,27,24.9,27
	c-0.3,0-0.5,0-0.9-0.2c-0.3-0.1-0.5-0.3-0.7-0.4L15,18l-8.4,8.4c-0.2,0.2-0.4,0.3-0.7,0.4C5.7,26.9,5.5,27,5.1,27
	c-0.6,0-1.1-0.3-1.5-0.6C3.3,26,3,25.4,3,24.9c0-0.3,0.1-0.5,0.2-0.8c0.1-0.3,0.3-0.5,0.4-0.7l8.5-8.4L3.6,6.5C3.3,6.2,3,5.7,3,5.1
	C3,4.5,3.3,4,3.6,3.6C4,3.3,4.6,3,5.1,3C5.7,3,6.2,3.3,6.6,3.6z"/>
</svg>
