<?xml version="1.0" encoding="utf-8"?>
<!-- Generator: Adobe Illustrator 19.2.1, SVG Export Plug-In . SVG Version: 6.00 Build 0)  -->
<svg version="1.1" id="Слой_1" xmlns="http://www.w3.org/2000/svg" xmlns:xlink="http://www.w3.org/1999/xlink" x="0px" y="0px"
	 viewBox="0 0 640 640" style="enable-background:new 0 0 640 640;" xml:space="preserve">
<style type="text/css">
	.st0{fill:#0D0F0F;}
</style>
<path class="st0" d="M0,384V160c0-35.35,28.65-64,64-64h320c35.3,0,64,28.65,64,64v224c0,35.3-28.7,64-64,64h-97.8l21.3,64H368
	c8.8,0,16,7.2,16,16s-7.2,16-16,16H80c-8.84,0-16-7.2-16-16s7.16-16,16-16h60.5l21.3-64H64C28.65,448,0,419.3,0,384L0,384z M384,128
	H64c-17.67,0-32,14.33-32,32v224c0,17.7,14.33,32,32,32h320c17.7,0,32-14.3,32-32V160C416,142.33,401.7,128,384,128z M273.8,512
	l-21.3-64h-57l-21.3,64H273.8z M536,400c0-13.3,10.7-24,24-24s24,10.7,24,24s-10.7,24-24,24S536,413.3,536,400z M480,144
	c0-26.51,21.5-48,48-48h64c26.5,0,48,21.49,48,48v352c0,26.5-21.5,48-48,48h-64c-26.5,0-48-21.5-48-48V144z M512,144v48h96v-48
	c0-8.84-7.2-16-16-16h-64C519.2,128,512,135.16,512,144z M512,224v32h96v-32H512z M528,512h64c8.8,0,16-7.2,16-16V288h-96v208
	C512,504.8,519.2,512,528,512z"/>
</svg>
