<svg xmlns="http://www.w3.org/2000/svg" viewBox="0 0 40 40">
<g>
	<path d="M0.7,39c0,0.3,0.1,0.5,0.4,0.7c0.5,0.4,1.3,0.4,1.8,0l17.2-13.8l17,13.6c0.5,0.4,1.3,0.4,1.8,0c0.5-0.4,0.5-1.1,0-1.5L21,23.7c-0.5-0.4-1.3-0.4-1.8,0L1.1,38.2C0.8,38.4,0.7,38.7,0.7,39z"/>
	<path d="M0.7,27.3c0,0.3,0.1,0.5,0.4,0.7c0.5,0.4,1.3,0.4,1.8,0l17.2-13.8l17,13.6c0.5,0.4,1.3,0.4,1.8,0c0.5-0.4,0.5-1.1,0-1.5L21,12c-0.5-0.4-1.3-0.4-1.8,0L1.1,26.5C0.8,26.7,0.7,27,0.7,27.3z"/>
	<path d="M0.7,15.5c0,0.3,0.1,0.5,0.4,0.7c0.5,0.4,1.3,0.4,1.8,0L20.1,2.5l17,13.6c0.5,0.4,1.3,0.4,1.8,0c0.5-0.4,0.5-1.1,0-1.5L21,0.3c-0.5-0.4-1.3-0.4-1.8,0L1.1,14.8C0.8,15,0.7,15.3,0.7,15.5z"/>
</g>
</svg>
