<?xml version="1.0" encoding="utf-8"?>
<!-- Generator: Adobe Illustrator 19.2.1, SVG Export Plug-In . SVG Version: 6.00 Build 0)  -->
<svg version="1.1" id="Слой_1" xmlns="http://www.w3.org/2000/svg" xmlns:xlink="http://www.w3.org/1999/xlink" x="0px" y="0px"
	 viewBox="0 0 640 640" style="enable-background:new 0 0 640 640;" xml:space="preserve">
<style type="text/css">
	.st0{fill:#0D0F0F;}
</style>
<path class="st0" d="M633.9,547.4c7,5.5,8.1,14.7,2.7,22.5c-5.5,7-15.6,8.1-22.5,2.7L6.08,92.56c-6.94-5.48-8.12-15.54-2.64-22.47
	c5.48-6.94,15.54-8.12,22.47-2.64L633.9,547.4z M605.5,332.3c-10.2,24.6-28.3,57-53.9,89l-25.1-19.8c23.6-30.4,40.3-59.4,49.5-81.5
	c-13.3-32.9-42.1-80.9-85.2-120c-43.1-40.01-100.4-72-170.8-72c-39.8,0-75.4,10.21-106.6,26.31l-27.3-21.53
	C224,110.8,268.8,95.1,320,95.1c80.8,0,145.5,37.74,192.6,81.5c46.8,43.4,78.1,94.5,92.9,131.1C608.8,315.6,608.8,324.4,605.5,332.3
	L605.5,332.3z M88.39,218.7l25.11,19.8c-23.64,29.5-40.27,59.4-50.4,80.6c14.23,32.9,43,80.9,86.1,120.9s100.4,72,169.9,72
	c40.7,0,76.3-10.2,107.5-26.3l27.3,21.5c-38.8,22-82.7,36.8-134.8,36.8c-79.9,0-144.6-36.8-191.7-80.6
	C80.62,419.1,49.34,368,34.46,332.3c-3.28-7.9-3.28-16.7,0-24.6C44.73,283.1,62.8,250.7,88.39,218.7L88.39,218.7z M191.1,319.1
	c0-5.4,1.4-11.5,2.2-17.6l30.9,24.4c3,50.3,43.9,90.1,94.9,90.1c6.5,0,12.1-0.5,17.4-1.4l30.9,24.3c-14.7,5.9-30.7,9.1-48.3,9.1
	C249.3,448,191.1,390.7,191.1,319.1z M448,319.1c0,7.2-0.5,13.3-1.3,19.4l-30.9-24.4c-3-50.3-44.8-91-96.7-91
	c-4.7,0-10.3,1.4-15.6,2.3l-30.9-24.3c14.7-5.9,30.7-10,46.5-10C390.7,191.1,448,249.3,448,319.1L448,319.1z"/>
</svg>
