<?xml version="1.0" encoding="utf-8"?>
<!-- Generator: Adobe Illustrator 19.2.1, SVG Export Plug-In . SVG Version: 6.00 Build 0)  -->
<svg version="1.1" id="Слой_1" xmlns="http://www.w3.org/2000/svg" xmlns:xlink="http://www.w3.org/1999/xlink" x="0px" y="0px"
	 viewBox="0 0 512 512" style="enable-background:new 0 0 512 512;" xml:space="preserve">
<style type="text/css">
	.st0{fill:#0D0F0F;}
</style>
<path class="st0" d="M429.3,125.3L322.8,18.8C310.7,6.74,294.5,0,277.5,0H128C92.65,0,64,28.65,64,64l0.01,384
	c0,35.35,28.65,64,64,64H384c35.35,0,64-28.65,64-64V170.5C448,153.5,441.3,137.3,429.3,125.3z M288,34.08
	c4.48,1.57,8.67,3.85,12.12,7.3l106.5,106.5c3.48,3.42,5.78,7.62,7.28,12.12H304c-8.8,0-16-7.2-16-16V34.08z M416,448
	c0,17.64-14.36,32-32,32H128c-17.64,0-32-14.36-32-32V64c0-17.64,14.36-32,32-32h128v112c0,26.5,21.5,48,48,48h112V448z
	 M187.3,319.4c-6.25-6.25-16.38-6.25-22.62,0c-6.24,6.25-6.25,16.38,0,22.62l53.34,53.33c3.18,3.05,7.28,4.65,11.28,4.65
	s8.19-1.56,11.31-4.69l106.7-106.7c6.25-6.25,6.25-16.38,0-22.62s-16.38-6.25-22.62,0l-95.34,95.36L187.3,319.4z"/>
</svg>
