<?xml version="1.0" encoding="utf-8"?>
<!-- Generator: Adobe Illustrator 19.2.1, SVG Export Plug-In . SVG Version: 6.00 Build 0)  -->
<svg version="1.1" id="Слой_1" xmlns="http://www.w3.org/2000/svg" xmlns:xlink="http://www.w3.org/1999/xlink" x="0px" y="0px"
	 viewBox="0 0 512 512" style="enable-background:new 0 0 512 512;" xml:space="preserve">
<style type="text/css">
	.st0{fill:#0D0F0F;}
</style>
<path class="st0" d="M429.3,125.3L322.8,18.8C310.7,6.74,294.5,0,277.5,0L128,0C92.65,0,64,28.65,64,64l0.01,384
	c0,35.35,28.65,64,64,64H384c35.35,0,64-28.65,64-64V170.5C448,153.5,441.3,137.3,429.3,125.3z M288,34.08
	c4.48,1.57,8.67,3.85,12.12,7.3l106.5,106.5c3.48,3.42,5.78,7.62,7.28,12.12H304c-8.8,0-16-7.2-16-16V34.08z M416,448
	c0,17.64-14.36,32-32,32H128c-17.64,0-32-14.36-32-32V64c0-17.64,14.36-32,32-32h128v112c0,26.5,21.5,48,48,48h112V448z M160,272
	c0,8.8,7.2,16,16,16h160c8.8,0,16-7.2,16-16s-7.2-16-16-16H176C167.2,256,160,263.2,160,272z M336,320H176c-8.8,0-16,7.2-16,16
	s7.2,16,16,16h160c8.84,0,16-7.16,16-16S344.8,320,336,320z M336,384H176c-8.8,0-16,7.2-16,16s7.2,16,16,16h160
	c8.84,0,16-7.16,16-16S344.8,384,336,384z"/>
</svg>
