<?xml version="1.0" encoding="utf-8"?>
<!-- Generator: Adobe Illustrator 19.2.1, SVG Export Plug-In . SVG Version: 6.00 Build 0)  -->
<svg version="1.1" id="Слой_1" xmlns="http://www.w3.org/2000/svg" xmlns:xlink="http://www.w3.org/1999/xlink" x="0px" y="0px"
	 viewBox="0 0 512 512" style="enable-background:new 0 0 512 512;" xml:space="preserve">
<style type="text/css">
	.st0{fill:#0D0F0F;}
</style>
<path class="st0" d="M336,192.66c0,44.2-35.8,80-80,80s-80-35.8-80-80s35.8-80,80-80S336,148.46,336,192.66z M256,240.66
	c26.5,0,48-21.5,48-48s-21.5-48-48-48s-48,21.5-48,48S229.5,240.66,256,240.66z M448,192.66c0,87.4-117,243-168.3,307.2
	c-12.3,15.3-35.1,15.3-47.4,0C180.1,435.66,64,280.06,64,192.66c0-106.04,85.96-192,192-192C362,0.66,448,86.62,448,192.66
	L448,192.66z M256,32.66c-88.4,0-160,71.6-160,160c0,15.6,5.43,37,16.56,63.4c10.91,25.9,26.24,54,43.58,82.1
	c34.06,55.3,74.46,108.2,99.86,140.1c25.4-31.9,65.8-84.8,99.9-140.1c17.3-28.1,32.6-56.2,43.5-82.1c11.2-26.4,16.6-47.8,16.6-63.4
	C416,104.26,344.4,32.66,256,32.66z"/>
</svg>
