<svg width="50" height="50" viewBox="0 0 50 50" xmlns="http://www.w3.org/2000/svg">
<path d="M31.3995 4.16406H18.6161C6.94115 4.16406 4.16406 6.94115 4.16406 18.5953V31.3786C4.16406 43.0516 6.92031 45.8307 18.5953 45.8307H31.3786C43.0516 45.8307 45.8307 43.0745 45.8307 31.3995V18.6161C45.8307 6.94115 43.0745 4.16406 31.3995 4.16406ZM37.8016 33.8932H34.762C33.612 33.8932 33.2661 32.962 31.2036 30.8995C29.4036 29.1641 28.6432 28.9474 28.187 28.9474C27.5578 28.9474 27.3849 29.1203 27.3849 29.9891V32.7224C27.3849 33.462 27.1453 33.8953 25.2141 33.8953C23.3398 33.7694 21.5222 33.1999 19.9111 32.2339C18.3 31.2679 16.9415 29.933 15.9474 28.3391C13.5873 25.4016 11.9452 21.9539 11.1516 18.2703C11.1516 17.8141 11.3245 17.4016 12.1932 17.4016H15.2307C16.012 17.4016 16.2932 17.7495 16.5995 18.5516C18.0745 22.8932 20.5911 26.6682 21.612 26.6682C22.0036 26.6682 22.1745 26.4953 22.1745 25.5182V21.0474C22.0453 19.0078 20.962 18.8349 20.962 18.0974C20.9759 17.9029 21.065 17.7214 21.2105 17.5915C21.356 17.4616 21.5463 17.3935 21.7411 17.4016H26.5161C27.1682 17.4016 27.3849 17.7266 27.3849 18.5078V24.5411C27.3849 25.1932 27.6661 25.4099 27.862 25.4099C28.2536 25.4099 28.5557 25.1932 29.2724 24.4766C30.8117 22.5994 32.0693 20.508 33.0057 18.2682C33.1014 17.9992 33.2826 17.7689 33.5214 17.6124C33.7603 17.4559 34.0438 17.3819 34.3286 17.4016H37.3682C38.2786 17.4016 38.4724 17.8578 38.2786 18.5078C37.1734 20.9837 35.8059 23.334 34.1995 25.5182C33.8724 26.0182 33.7411 26.2786 34.1995 26.8641C34.5016 27.3203 35.5661 28.2099 36.2828 29.0557C37.3243 30.0946 38.1891 31.2965 38.8432 32.6141C39.1036 33.4599 38.6682 33.8932 37.8016 33.8932Z"/>
</svg>
