<svg width="64" height="64" viewBox="0 0 64 64" xmlns="http://www.w3.org/2000/svg">
<path d="M0 0V64H64V0H0ZM28.4101 17.1133C30.2222 17.0945 31.9947 17.2954 32.8594 17.3203C36.0647 17.4126 36.6308 19.0338 36.5898 20.3672C36.5298 22.3201 35.2733 30.5811 37.6015 31.3867C40.994 29.5726 43.269 23.9382 44.9257 20.3672C45.7638 18.5609 45.6313 18.4711 47.5624 18.4687L55.2343 18.457C57.0818 18.4547 57.0097 18.3899 57.6016 19.1445C58.9781 20.8996 53.2577 28.2002 51.4101 30.2188C48.0005 33.9439 49.9898 35.3865 50.539 35.8985C53.0835 38.2709 55.5422 40.731 57.0703 43C58.2851 44.8038 57.7834 46.4833 56.2382 46.5469L48.0116 46.8867C45.2817 46.9989 41.0369 42.1053 40.3594 41.039C39.8114 40.1596 37.1706 39.0573 36.9219 41.3046L36.5741 44.4413C36.3217 46.6835 34.6661 46.6311 33.3594 46.6873C24.3103 47.0767 21.2287 43.6315 16.6718 38.5467C13.332 33.8235 10.1449 29.0731 7.50384 23.3826C6.71333 21.6793 6.29461 20.4297 6.18741 19.1053C7.51627 18.0667 12.1806 18.514 15.3124 18.4451C16.169 18.4262 16.747 18.9171 17.1991 19.8943C18.9635 23.7084 20.8876 27.4538 23.4335 30.7654C24.5423 31.7867 25.5225 32.1622 26.0117 30.0858C26.2957 30.0597 26.2729 26.6211 26.289 24.0271C26.3001 22.2461 26.0908 20.1103 23.0742 19.1248C23.6844 17.5254 26.0803 17.1374 28.4101 17.1133Z"/>
</svg>
