<svg width="50" height="50" viewBox="0 0 50 50" xmlns="http://www.w3.org/2000/svg">
<path d="M25.1594 6.25H25.4375C28.0063 6.25938 41.0219 6.35313 44.5313 7.29688C45.5922 7.5849 46.5589 8.14632 47.3349 8.92503C48.1108 9.70373 48.6688 10.6725 48.9531 11.7344C49.2688 12.9219 49.4906 14.4938 49.6406 16.1156L49.6719 16.4406L49.7406 17.2531L49.7656 17.5781C49.9688 20.4344 49.9938 23.1094 49.9969 23.6937V23.9281C49.9938 24.5344 49.9656 27.3906 49.7406 30.3656L49.7156 30.6938L49.6875 31.0188C49.5313 32.8062 49.3 34.5813 48.9531 35.8875C48.6697 36.9499 48.112 37.919 47.3359 38.6979C46.5598 39.4767 45.5926 40.0378 44.5313 40.325C40.9063 41.3 27.1281 41.3688 25.2188 41.3719H24.775C23.8094 41.3719 19.8156 41.3531 15.6281 41.2094L15.0969 41.1906L14.825 41.1781L14.2906 41.1562L13.7563 41.1344C10.2875 40.9813 6.98438 40.7344 5.4625 40.3219C4.40153 40.035 3.43458 39.4743 2.65851 38.6961C1.88245 37.9178 1.32452 36.9493 1.04063 35.8875C0.69375 34.5844 0.4625 32.8062 0.30625 31.0188L0.28125 30.6906L0.25625 30.3656C0.102024 28.2481 0.0165621 26.1262 0 24.0031L0 23.6187C0.00625 22.9469 0.03125 20.625 0.2 18.0625L0.221875 17.7406L0.23125 17.5781L0.25625 17.2531L0.325 16.4406L0.35625 16.1156C0.50625 14.4938 0.728125 12.9187 1.04375 11.7344C1.32717 10.672 1.88488 9.70285 2.66098 8.92401C3.43708 8.14517 4.40428 7.58404 5.46563 7.29688C6.9875 6.89063 10.2906 6.64062 13.7594 6.48437L14.2906 6.4625L14.8281 6.44375L15.0969 6.43438L15.6313 6.4125C18.6053 6.3168 21.5806 6.26367 24.5563 6.25313H25.1594V6.25ZM20 16.2812V31.3375L32.9906 23.8125L20 16.2812Z"/>
</svg>
