<?xml version="1.0" encoding="utf-8"?>
<!-- Generator: Adobe Illustrator 19.2.1, SVG Export Plug-In . SVG Version: 6.00 Build 0)  -->
<svg version="1.1" id="Слой_1" xmlns="http://www.w3.org/2000/svg" xmlns:xlink="http://www.w3.org/1999/xlink" x="0px" y="0px"
	 viewBox="0 0 200 200" style="enable-background:new 0 0 200 200;" xml:space="preserve">
<style type="text/css">
	.st0{fill:#0D0F0F;}
</style>
<g>
	<polygon class="st0" points="141.03,30.03 60.24,30.03 56.41,36.66 144.86,36.66 	"/>
	<polygon class="st0" points="122.45,74.56 156.08,56.1 147.69,41.57 53.58,41.57 45.12,56.22 78.54,74.56 	"/>
	<polygon class="st0" points="19.84,100 60.24,169.97 67.99,169.97 23.8,93.14 	"/>
	<polygon class="st0" points="176.2,93.14 132.01,169.97 139.76,169.97 180.16,100 	"/>
	<polygon class="st0" points="39.42,66.09 27.57,86.63 70.75,160.31 76.42,169.97 94.94,169.97 94.94,115.56 78.88,87.75 	"/>
	<polygon class="st0" points="161.86,66.09 122.4,87.75 106.34,115.56 106.34,169.97 124.86,169.97 130.53,160.31 173.72,86.63 	"/>
</g>
</svg>
