<?xml version="1.0" standalone="no"?>
<!DOCTYPE svg PUBLIC "-//W3C//DTD SVG 20010904//EN"
 "http://www.w3.org/TR/2001/REC-SVG-20010904/DTD/svg10.dtd">
<svg version="1.0" xmlns="http://www.w3.org/2000/svg"
 width="700.000000pt" height="700.000000pt" viewBox="0 0 700.000000 700.000000"
 preserveAspectRatio="xMidYMid meet">
<metadata>
Created by potrace 1.14, written by Peter Selinger 2001-2017
</metadata>
<g transform="translate(0.000000,700.000000) scale(0.100000,-0.100000)"
fill="#000000" stroke="none">
<path d="M2096 5928 c-54 -88 -116 -200 -112 -206 3 -5 3042 -8 3078 -3 4 1
-19 45 -50 99 -32 53 -61 105 -65 115 -6 16 -83 17 -1421 17 l-1416 0 -14 -22z"/>
<path d="M1865 5525 c-35 -55 -274 -473 -277 -483 -2 -7 13 -21 32 -32 162
-90 366 -201 482 -264 37 -20 90 -49 118 -66 28 -16 53 -30 55 -30 2 0 34 -17
72 -38 37 -22 100 -56 138 -77 39 -21 114 -62 167 -92 l97 -53 778 2 778 3
205 116 c113 63 239 133 280 156 41 22 95 52 120 65 25 14 158 87 295 163 138
75 252 138 253 140 2 2 -62 117 -143 257 l-146 253 -1646 0 c-1636 0 -1646 0
-1658 -20z"/>
<path d="M1300 4550 c-41 -72 -80 -138 -85 -148 -6 -9 -37 -64 -70 -122 -33
-57 -64 -112 -70 -122 -5 -9 -31 -54 -57 -99 -27 -45 -48 -86 -48 -91 0 -5 12
-30 28 -56 15 -26 32 -54 37 -64 6 -10 53 -90 105 -179 52 -89 104 -178 116
-198 12 -20 112 -191 224 -381 111 -190 211 -361 222 -380 21 -36 311 -533
327 -560 5 -8 103 -175 217 -370 115 -195 241 -411 282 -480 41 -69 90 -153
110 -187 l37 -63 323 0 c300 0 322 1 323 18 0 9 1 438 2 952 l0 935 -268 465
c-147 256 -276 476 -286 490 -9 14 -39 37 -66 51 -48 26 -120 65 -203 111 -25
14 -97 53 -160 88 -63 35 -135 74 -160 88 -25 13 -74 40 -110 60 -36 19 -78
43 -95 52 -16 10 -57 32 -90 50 -33 18 -78 43 -100 55 -242 133 -394 215 -402
215 -4 0 -42 -59 -83 -130z"/>
<path d="M5610 4658 c-19 -11 -102 -58 -185 -103 -82 -45 -167 -92 -187 -103
-21 -12 -68 -38 -105 -58 -37 -20 -90 -49 -118 -64 -27 -15 -72 -40 -100 -55
-372 -204 -566 -311 -595 -326 -35 -18 -87 -102 -271 -429 -15 -25 -38 -65
-53 -88 -14 -23 -26 -44 -26 -47 0 -2 -16 -29 -35 -59 -19 -30 -35 -57 -35
-60 0 -2 -20 -39 -45 -80 -25 -42 -45 -78 -45 -81 0 -2 -12 -21 -26 -42 -67
-99 -62 -18 -62 -1066 l0 -947 323 0 323 0 16 24 c8 14 25 42 37 63 54 97 333
571 350 595 10 15 19 29 19 32 0 2 37 67 83 144 45 78 89 153 98 169 9 15 75
127 146 248 71 121 209 357 307 524 98 168 187 318 197 335 10 17 22 38 25 46
4 8 13 22 19 30 7 8 25 38 40 65 14 28 105 183 200 345 l174 295 -41 74 c-22
41 -50 90 -62 110 -13 20 -36 61 -53 91 -17 30 -76 134 -132 230 -55 96 -105
182 -110 190 -12 22 -32 21 -71 -2z"/>
<path d="M763 3620 c-35 -60 -63 -114 -63 -120 0 -6 75 -140 166 -298 92 -158
175 -301 184 -318 10 -16 53 -91 95 -165 43 -74 112 -192 153 -263 41 -72 82
-144 92 -160 9 -17 85 -148 168 -291 82 -143 240 -415 349 -605 l199 -345 132
-3 c74 -1 132 1 132 6 0 9 -224 404 -349 617 -26 44 -50 87 -54 95 -4 8 -15
29 -26 45 -10 17 -174 302 -366 635 -191 333 -408 709 -481 837 -74 128 -143
249 -155 270 -53 94 -102 173 -108 173 -3 0 -34 -50 -68 -110z"/>
<path d="M6061 3555 c-56 -97 -114 -197 -128 -223 -14 -26 -46 -81 -70 -122
-24 -41 -49 -84 -55 -95 -7 -11 -104 -180 -216 -375 -113 -195 -264 -458 -337
-585 -73 -126 -201 -349 -285 -495 -84 -146 -175 -305 -204 -355 -28 -49 -56
-99 -63 -110 -7 -11 -15 -27 -20 -35 -4 -8 -19 -36 -35 -62 l-27 -48 137 0
c132 0 137 1 148 23 6 12 53 95 105 185 52 89 102 176 112 193 9 17 127 220
261 452 134 232 344 598 468 812 124 215 234 406 245 425 11 19 41 70 67 113
25 43 46 80 46 82 0 3 20 38 45 78 25 41 45 80 45 87 0 7 -19 45 -43 84 -23
39 -51 88 -62 109 -11 20 -23 37 -26 37 -4 0 -53 -79 -108 -175z"/>
</g>
</svg>
