<svg xmlns="http://www.w3.org/2000/svg" viewBox="0 0 756 140">
	<polygon points="60.23,75.47 60.23,26.56 68.35,18.44 117.27,18.44 117.27,29.85 71.65,29.85 71.65,41.28  105.85,41.28 105.85,52.65 71.65,52.65 71.65,75.47"/>
	<path d="M183.29,18.44l8.11,8.11v40.81l-8.11,8.11h-40.81l-8.11-8.11V26.56l8.11-8.11C142.48,18.45,183.29,18.45,183.29,18.44z M145.79,64.07H180V29.85h-34.21V64.07z"/>
	<polygon points="208.51,44.58 208.51,26.56 216.62,18.44 265.55,18.44 265.55,29.85 219.93,29.85 219.93,41.28 257.43,41.28 265.55,49.35 265.55,67.36 257.43,75.47 208.51,75.47 208.51,64.07 254.13,64.07 254.13,52.65 216.62,52.65"/>
	<polygon points="305.48,29.85 282.65,29.85 282.65,18.44 339.68,18.44 339.68,29.85 316.85,29.85 316.85,75.47 305.48,75.47"/>
	<polygon points="356.79,26.56 364.9,18.44 413.82,18.44 413.82,29.85 368.2,29.85 368.2,41.28 402.41,41.28 402.41,52.65 368.2,52.65 368.2,64.07 413.82,64.07 413.82,75.47 364.9,75.47 356.79,67.36"/>
	<path d="M479.85,18.44l8.11,8.11v18.02l-8.11,8.07h-6.6l14.72,14.72l-8.11,8.11l-22.79-22.83h-14.72v22.83h-11.41V26.56l8.11-8.11C439.05,18.45,479.85,18.45,479.85,18.44z M442.34,41.28h34.21V29.85h-34.21V41.28z"/>
	<polygon points="505.06,44.58 505.06,26.56 513.18,18.44 562.1,18.44 562.1,29.85 516.48,29.85 516.48,41.28 553.99,41.28 562.1,49.35 562.1,67.36 553.99,75.47 505.06,75.47 505.06,64.07 550.69,64.07 550.69,52.65 513.18,52.65"/>
	<path d="M673.75,18.44l8.11,8.11v18.02l-8.11,8.07h-37.51v22.83h-11.42V26.56l8.11-8.11C632.93,18.45,673.75,18.45,673.75,18.44z M636.24,41.28h34.21V29.85h-34.21V41.28z"/>
	<polygon points="698.96,26.56 707.08,18.44 756,18.44 756,29.85 710.38,29.85 710.38,64.07 756,64.07 756,75.47 707.08,75.47 698.96,67.36"/>
	<path d="M74.09,112.25h3.11v7.06c-0.91,0.72-1.97,1.28-3.19,1.67c-1.21,0.39-2.46,0.58-3.74,0.58c-1.8,0-3.43-0.39-4.88-1.18c-1.45-0.78-2.59-1.87-3.41-3.25c-0.83-1.38-1.24-2.94-1.24-4.68s0.41-3.3,1.24-4.68s1.97-2.47,3.43-3.25c1.46-0.78,3.1-1.18,4.92-1.18c1.48,0,2.83,0.24,4.05,0.73c1.21,0.49,2.23,1.21,3.06,2.15l-2.08,2.02c-1.35-1.35-2.98-2.02-4.88-2.02c-1.25,0-2.36,0.26-3.33,0.78s-1.73,1.26-2.28,2.2c-0.55,0.94-0.82,2.02-0.82,3.24c0,1.18,0.27,2.24,0.82,3.19c0.55,0.95,1.31,1.69,2.28,2.23s2.07,0.81,3.3,0.81c1.38,0,2.6-0.3,3.64-0.91L74.09,112.25L74.09,112.25z"/>
	<path d="M94.91,117.19h-8.85l-1.75,4.1h-3.39l7.97-17.7h3.24l7.99,17.7h-3.44L94.91,117.19z M93.82,114.61l-3.34-7.74l-3.31,7.74H93.82z"/>
	<polygon points="120.52,121.29 120.5,109.57 114.68,119.28 113.21,119.28 107.4,109.72 107.4,121.29 104.26,121.29 104.26,103.6 106.97,103.6 114,115.33 120.9,103.6 123.61,103.6 123.63,121.29"/>
	<polygon points="143.59,118.54 143.59,121.29 130.31,121.29 130.31,103.6 143.23,103.6 143.23,106.35 133.6,106.35 133.6,110.96 142.15,110.96 142.15,113.65 133.6,113.65 133.6,118.54"/>
	<path d="M174.29,121.29l-3.62-5.18c-0.15,0.02-0.38,0.03-0.68,0.03h-4v5.16h-3.29v-17.7h7.28c1.53,0,2.87,0.25,4.01,0.76s2.01,1.23,2.62,2.18c0.61,0.94,0.91,2.06,0.91,3.36c0,1.33-0.32,2.48-0.97,3.44s-1.58,1.68-2.79,2.15l4.07,5.82h-3.54V121.29z M173.1,107.29c-0.74-0.61-1.83-0.91-3.26-0.91H166v7.06h3.84c1.43,0,2.52-0.31,3.26-0.92c0.74-0.62,1.11-1.49,1.11-2.62C174.22,108.76,173.85,107.9,173.1,107.29"/>
	<polygon points="196.37,118.54 196.37,121.29 183.09,121.29 183.09,103.6 196.01,103.6 196.01,106.35 186.38,106.35 186.38,110.96 194.93,110.96 194.93,113.65 186.38,113.65 186.38,118.54"/>
	<polygon points="201.93,103.6 205.22,103.6 205.22,118.51 214.48,118.51 214.48,121.29 201.93,121.29"/>
	<rect x="218.98" y="103.6" width="3.29" height="17.7"/>
	<path d="M241.03,112.25h3.11v7.06c-0.91,0.72-1.97,1.28-3.19,1.67c-1.21,0.39-2.46,0.58-3.74,0.58c-1.8,0-3.43-0.39-4.88-1.18c-1.45-0.78-2.59-1.87-3.41-3.25c-0.83-1.38-1.24-2.94-1.24-4.68s0.41-3.3,1.24-4.68s1.97-2.47,3.43-3.25s3.1-1.18,4.92-1.18c1.48,0,2.83,0.24,4.05,0.73c1.21,0.49,2.23,1.21,3.06,2.15l-2.08,2.02c-1.35-1.35-2.98-2.02-4.88-2.02c-1.25,0-2.36,0.26-3.33,0.78s-1.73,1.26-2.28,2.2c-0.55,0.94-0.82,2.02-0.82,3.24c0,1.18,0.27,2.24,0.82,3.19c0.55,0.95,1.31,1.69,2.28,2.23s2.07,0.81,3.3,0.81c1.38,0,2.6-0.3,3.64-0.91V112.25z"/>
	<rect x="250.36" y="103.6" width="3.29" height="17.7"/>
	<path d="M263.71,120.38c-1.45-0.78-2.59-1.87-3.41-3.26c-0.83-1.39-1.24-2.95-1.24-4.67s0.41-3.27,1.24-4.67c0.83-1.39,1.96-2.48,3.41-3.26s3.08-1.18,4.88-1.18c1.8,0,3.43,0.39,4.88,1.18c1.45,0.78,2.59,1.87,3.41,3.25c0.83,1.38,1.24,2.94,1.24,4.68s-0.41,3.3-1.24,4.68s-1.96,2.47-3.41,3.25s-3.08,1.18-4.88,1.18C266.79,121.54,265.16,121.15,263.71,120.38 M271.78,117.86c0.94-0.53,1.69-1.27,2.23-2.23c0.54-0.95,0.81-2.02,0.81-3.2s-0.27-2.25-0.81-3.2s-1.28-1.69-2.23-2.23c-0.94-0.53-2.01-0.8-3.19-0.8s-2.24,0.26-3.19,0.8c-0.94,0.53-1.69,1.27-2.22,2.23c-0.54,0.95-0.81,2.02-0.81,3.2s0.27,2.25,0.81,3.2s1.28,1.69,2.22,2.23c0.94,0.53,2.01,0.8,3.19,0.8S270.84,118.4,271.78,117.86"/>
	<polygon points="299.24,103.6 299.24,121.29 296.54,121.29 286.78,109.31 286.78,121.29 283.51,121.29 283.51,103.6 286.22,103.6 295.98,115.58 295.98,103.6"/>
</svg>
